<svg xmlns="http://www.w3.org/2000/svg" width="31.783" height="31.782" viewBox="0 0 31.783 31.782">
  <g id="Group_2871" data-name="Group 2871" transform="translate(-712.286 -509.811)">
    <path id="Path_3020" data-name="Path 3020" d="M725.895,509.936a1.674,1.674,0,0,1,1.19,1.236,2.045,2.045,0,0,1,.034.58c-.019.229.049.287.282.286,1.98-.011,3.96,0,5.941-.012a.68.68,0,0,1,.533.227q3.083,3.1,6.18,6.183a.652.652,0,0,1,.209.51q-.01,3.755,0,7.511c0,.244-.064.32-.3.3s-.6.078-.705-.046c-.13-.151-.06-.481-.06-.734,0-2.073-.006-4.145,0-6.218,0-.266-.046-.357-.34-.354-1.888.016-3.776,0-5.664.014-.24,0-.307-.058-.305-.3.011-1.908,0-3.817.012-5.725,0-.249-.072-.3-.309-.3q-2.57.015-5.14,0c-.26,0-.34.046-.34.328.011,4.217-.008,8.434.02,12.651a1.684,1.684,0,0,1-1.741,1.747c-2.647-.032-5.294-.006-7.941-.017-.264,0-.313.074-.312.323q.012,6,0,12c0,.251.075.295.306.295q10.727-.009,21.454,0c.241,0,.3-.059.3-.3-.01-1.908,0-3.817-.012-5.725,0-.241.058-.31.3-.306.765.013.766,0,.766.764,0,2.093,0,4.186.005,6.279,0,.251-.034.341-.322.341q-11.774-.015-23.547,0c-.253,0-.318-.055-.318-.314.009-4.34,0-8.68.013-13.02,0-.266-.054-.352-.334-.34-.584.025-1.169.014-1.754.006a1.542,1.542,0,0,1-1.534-1.136.565.565,0,0,0-.058-.1V511.167a1.846,1.846,0,0,1,1.231-1.231Zm-12.433,8.922q0,3.57,0,7.139c0,.586.162.748.748.748h11.078c.633,0,.784-.149.784-.775q0-7.109,0-14.217c0-.608-.159-.767-.764-.767H714.229c-.608,0-.768.159-.768.763Q713.461,515.3,713.461,518.858Zm24.879-.53-4.382-4.374c0,1.373,0,2.784,0,4.2,0,.161.06.182.2.181C735.555,518.326,736.958,518.328,738.341,518.328Z" fill="#888" stroke="#707070" stroke-width="0.25"/>
    <path id="Path_3021" data-name="Path 3021" d="M1004.075,758.361a1.565,1.565,0,0,1,1.034,2.574c-.307.357-.656.678-.989,1.011q-3.969,3.971-7.943,7.937a1.919,1.919,0,0,1-.522.363c-.81.386-1.63.751-2.443,1.133a.554.554,0,0,1-.7-.073.561.561,0,0,1-.062-.683c.394-.852.781-1.707,1.18-2.556a1.349,1.349,0,0,1,.269-.367q4.4-4.408,8.807-8.812A1.725,1.725,0,0,1,1004.075,758.361Zm-10.061,11.465a5.634,5.634,0,0,0,1.91-1.167c1.842-1.9,3.73-3.75,5.6-5.621.172-.172.449-.343.465-.533.013-.153-.307-.323-.453-.506-.16-.2-.261-.19-.444,0-1.9,1.914-3.791,3.834-5.724,5.714A5.245,5.245,0,0,0,994.014,769.826Zm10.407-9.916a.514.514,0,0,0-.477-.505c-.194-.015-.781.381-.713.477a3.261,3.261,0,0,0,.719.72C1004.029,760.661,1004.424,760.088,1004.421,759.911Zm-1.28,1.492a.84.84,0,0,0-.057-.071c-.165-.166-.34-.323-.493-.5-.12-.138-.2-.149-.333-.009s-.219.251-.01.4a1.743,1.743,0,0,1,.218.213C1002.814,761.781,1002.814,761.781,1003.141,761.4Z" transform="translate(-261.563 -232.107)" fill="#888" stroke="#707070" stroke-width="0.25"/>
    <path id="Path_3022" data-name="Path 3022" d="M816.415,803.016a5.26,5.26,0,1,1,5.235,5.271A5.253,5.253,0,0,1,816.415,803.016Zm9.441.01a4.2,4.2,0,1,0-4.2,4.2A4.189,4.189,0,0,0,825.856,803.026Z" transform="translate(-97.173 -268.923)" fill="#888" stroke="#707070" stroke-width="0.25"/>
    <path id="Path_3023" data-name="Path 3023" d="M1003.246,774.461c-.963,0-1.927-.006-2.89.005-.213,0-.295-.049-.272-.269.027-.261-.067-.606.068-.761.114-.131.48-.05.734-.051,1.742,0,3.485,0,5.227-.006.237,0,.314.053.31.3-.014.779,0,.779-.779.779Z" transform="translate(-268.772 -246.123)" fill="#888" stroke="#707070" stroke-width="0.25"/>
    <path id="Path_3024" data-name="Path 3024" d="M1003.245,742.411c-.964,0-1.928-.007-2.891.005-.218,0-.29-.061-.269-.275.025-.261-.066-.606.069-.762.113-.13.479-.049.733-.049,1.743,0,3.486,0,5.229-.007.243,0,.311.061.307.306-.012.782,0,.782-.778.782Z" transform="translate(-268.772 -216.172)" fill="#888" stroke="#707070" stroke-width="0.25"/>
    <path id="Path_3025" data-name="Path 3025" d="M1003.32,709.35c.953,0,1.906.007,2.859,0,.215,0,.292.055.273.273-.022.254.083.621-.047.736-.154.137-.5.07-.763.07-1.742,0-3.485,0-5.227.008-.246,0-.326-.068-.3-.307s-.061-.582.07-.731c.11-.125.461-.043.705-.043C1001.7,709.348,1002.51,709.35,1003.32,709.35Z" transform="translate(-268.803 -186.292)" fill="#888" stroke="#707070" stroke-width="0.25"/>
    <path id="Path_3026" data-name="Path 3026" d="M1003.2,677.5c.964,0,1.929.005,2.893,0,.2,0,.305.027.282.26-.025.253.08.618-.051.735-.153.136-.5.07-.76.07-1.734,0-3.468,0-5.2.008-.244,0-.358-.039-.324-.31.03-.241-.069-.577.057-.7s.461-.052.7-.053C1001.6,677.5,1002.4,677.5,1003.2,677.5Z" transform="translate(-268.727 -156.54)" fill="#888" stroke="#707070" stroke-width="0.25"/>
    <path id="Path_3027" data-name="Path 3027" d="M969.379,742.221c0,.528,0,.528-.526.528s-.528,0-.528-.524c0-.558,0-.558.556-.558C969.379,741.666,969.379,741.666,969.379,742.221Z" transform="translate(-239.104 -216.509)" fill="#888" stroke="#707070" stroke-width="0.25"/>
    <path id="Path_3028" data-name="Path 3028" d="M969.379,774.265c0,.522,0,.522-.527.522s-.527,0-.527-.521c0-.556,0-.556.557-.556C969.379,773.71,969.379,773.71,969.379,774.265Z" transform="translate(-239.104 -246.449)" fill="#888" stroke="#707070" stroke-width="0.25"/>
    <path id="Path_3029" data-name="Path 3029" d="M969.379,710.26c0,.519,0,.519-.534.519s-.521,0-.521-.53c0-.547,0-.547.532-.547S969.379,709.7,969.379,710.26Z" transform="translate(-239.104 -186.645)" fill="#888" stroke="#707070" stroke-width="0.25"/>
    <path id="Path_3030" data-name="Path 3030" d="M968.88,678.839c-.553,0-.553,0-.553-.56,0-.5,0-.5.516-.5.538,0,.538,0,.538.544v.031C969.381,678.839,969.381,678.839,968.88,678.839Z" transform="translate(-239.107 -156.816)" fill="#888" stroke="#707070" stroke-width="0.25"/>
    <path id="Path_3031" data-name="Path 3031" d="M741.893,537.374c-1.815,0-3.63,0-5.445.006-.251,0-.33-.058-.326-.319.016-1.035.011-2.071,0-3.107,0-.205.042-.283.268-.283q5.522.01,11.043,0c.214,0,.279.057.276.274q-.016,1.584,0,3.168c0,.228-.079.265-.282.264C745.584,537.371,743.739,537.374,741.893,537.374Zm.061-2.621c-1.5,0-2.993.005-4.489-.006-.221,0-.277.06-.264.272a6.3,6.3,0,0,1,0,.922c-.025.284.044.373.354.371,2.511-.015,5.022-.009,7.533-.009.441,0,.882-.011,1.322.005.2.007.241-.056.233-.241a9.026,9.026,0,0,1,0-1.045c.018-.248-.078-.277-.292-.276C744.885,534.757,743.42,534.752,741.954,534.752Z" transform="translate(-22.154 -22.176)" fill="#888" stroke="#707070" stroke-width="0.25"/>
    <path id="Path_3032" data-name="Path 3032" d="M859.255,711.257a4.806,4.806,0,0,1-.005.676,1.06,1.06,0,0,1-1.051.9c-.348.014-.7.016-1.046,0a1.042,1.042,0,0,1-1.048-1,7.6,7.6,0,0,1,0-1.2,1.036,1.036,0,0,1,1.068-.976c.328-.008.657-.006.985,0a1.07,1.07,0,0,1,1.1,1.108c0,.164,0,.328,0,.492Zm-1.053-.028c0-.5,0-.5-.5-.5h-.031c-.5,0-.5,0-.5.513s0,.511.505.511C858.2,711.755,858.2,711.755,858.2,711.229Z" transform="translate(-134.236 -186.598)" fill="#888" stroke="#707070" stroke-width="0.25"/>
    <path id="Path_3033" data-name="Path 3033" d="M859.334,655.233c0,.185.007.37,0,.554a1.061,1.061,0,0,1-1.03,1.02q-.553.017-1.107,0a1,1,0,0,1-1-.9,7.61,7.61,0,0,1-.015-1.289.985.985,0,0,1,.943-.96,7.5,7.5,0,0,1,1.228,0,1.036,1.036,0,0,1,.984,1.089c0,.164,0,.328,0,.492Zm-2.1-.013c0,.526,0,.526.525.526s.51,0,.51-.515,0-.52-.531-.52C857.238,654.712,857.238,654.712,857.238,655.221Z" transform="translate(-134.306 -134.255)" fill="#888" stroke="#707070" stroke-width="0.25"/>
    <path id="Path_3034" data-name="Path 3034" d="M744.3,711.19c0-.174,0-.349,0-.523a1.057,1.057,0,0,1,1.018-1.063c.368-.018.739-.015,1.107,0a1.03,1.03,0,0,1,1.026.984,9.567,9.567,0,0,1,.007,1.137,1.056,1.056,0,0,1-1.091,1.054c-.328.01-.657.011-.984,0a1.067,1.067,0,0,1-1.083-1.126C744.3,711.5,744.3,711.344,744.3,711.19Zm1.573.509c.524,0,.524,0,.524-.495,0-.529,0-.529-.521-.529s-.517,0-.517.512S745.356,711.7,745.871,711.7Z" transform="translate(-29.792 -186.542)" fill="#888" stroke="#707070" stroke-width="0.25"/>
    <path id="Path_3035" data-name="Path 3035" d="M803.51,711.178c0,.164,0,.328,0,.492a1.055,1.055,0,0,1-1.067,1.106c-.338.013-.677.013-1.015,0a1.054,1.054,0,0,1-1.068-1.1c-.005-.338-.007-.677,0-1.015a1.043,1.043,0,0,1,1.018-1.055c.368-.016.739-.016,1.107,0a1.047,1.047,0,0,1,1.022,1.053C803.513,710.829,803.51,711,803.51,711.178Zm-1.57-.5c-.528,0-.528,0-.528.485,0,.538,0,.538.535.538.512,0,.512,0,.512-.5C802.461,710.674,802.461,710.674,801.941,710.674Z" transform="translate(-82.169 -186.54)" fill="#888" stroke="#707070" stroke-width="0.25"/>
    <path id="Path_3036" data-name="Path 3036" d="M745.832,656.951c-.195,0-.39.009-.584,0a1.056,1.056,0,0,1-1-1.02c-.01-.369-.008-.738,0-1.107a1,1,0,0,1,.89-1.008,7.662,7.662,0,0,1,1.379,0,.956.956,0,0,1,.876.917,9.192,9.192,0,0,1,.006,1.229,1.033,1.033,0,0,1-1.078.993c-.164,0-.328,0-.492,0Zm.515-1.589c0-.507,0-.507-.508-.507-.531,0-.531,0-.531.522s0,.513.514.513S746.346,655.89,746.346,655.362Z" transform="translate(-29.743 -134.398)" fill="#888" stroke="#707070" stroke-width="0.25"/>
    <path id="Path_3037" data-name="Path 3037" d="M857.753,601.029c-.164,0-.328,0-.492,0a1,1,0,0,1-1.061-.935,7.319,7.319,0,0,1,.008-1.319.983.983,0,0,1,1-.893q.553-.015,1.107,0a1.037,1.037,0,0,1,1.032,1.038c.009.359.01.718,0,1.077a1.042,1.042,0,0,1-1.041,1.031c-.184,0-.369,0-.554,0Zm0-1.05c.537,0,.537,0,.537-.545V599.4c0-.472,0-.472-.458-.472-.577,0-.577,0-.577.561C857.252,599.979,857.252,599.979,857.75,599.979Z" transform="translate(-134.32 -82.162)" fill="#888" stroke="#707070" stroke-width="0.25"/>
    <path id="Path_3038" data-name="Path 3038" d="M803.5,655.32c0,.185,0,.369,0,.554a1.043,1.043,0,0,1-1.037,1.035q-.538.014-1.076,0a1.037,1.037,0,0,1-1.032-1.038q-.014-.553,0-1.107a.982.982,0,0,1,.9-1,7.4,7.4,0,0,1,1.349,0,.99.99,0,0,1,.9,1.028C803.508,654.971,803.505,655.146,803.5,655.32Zm-1.049-.006c0-.5,0-.5-.515-.5-.533,0-.533,0-.533.543,0,.491,0,.491.5.491C802.456,655.848,802.456,655.848,802.456,655.314Z" transform="translate(-82.164 -134.357)" fill="#888" stroke="#707070" stroke-width="0.25"/>
    <path id="Path_3039" data-name="Path 3039" d="M745.792,601.028c-.195,0-.39.006-.584,0a1.031,1.031,0,0,1-1-.976c-.016-.4-.016-.8,0-1.2a1.019,1.019,0,0,1,.972-.965c.4-.014.8-.014,1.2,0a.98.98,0,0,1,.964.9,8.781,8.781,0,0,1,.008,1.289,1,1,0,0,1-1.04.957c-.174,0-.349,0-.523,0Zm.511-1.555c0-.54,0-.54-.508-.54-.531,0-.531,0-.531.523s0,.525.529.525C746.3,599.981,746.3,599.981,746.3,599.473Z" transform="translate(-29.701 -82.164)" fill="#888" stroke="#707070" stroke-width="0.25"/>
    <path id="Path_3040" data-name="Path 3040" d="M801.924,601.025c-.195,0-.39.006-.584,0a1.009,1.009,0,0,1-.979-.953c-.016-.409-.016-.82,0-1.229a1,1,0,0,1,.972-.958c.4-.014.8-.014,1.2,0a1.007,1.007,0,0,1,.968,1c.009.369.008.738,0,1.107a1.025,1.025,0,0,1-1.054,1.04c-.174,0-.349,0-.523,0Zm-.518-1.6c0,.547,0,.547.561.547.486,0,.486,0,.486-.5,0-.548,0-.548-.561-.548C801.405,598.93,801.405,598.93,801.405,599.43Z" transform="translate(-82.161 -82.16)" fill="#888" stroke="#707070" stroke-width="0.25"/>
    <path id="Path_3041" data-name="Path 3041" d="M864.8,833.7c.251.036.461.013.67.265a1.491,1.491,0,0,0,1.792.011c.19-.177.178-.387-.033-.477a3.573,3.573,0,0,0-1.015-.275,2.67,2.67,0,0,1-1.346-.455,1.322,1.322,0,0,1,0-2.246,2.587,2.587,0,0,1,.713-.342c.187-.06.285-.128.244-.33-.057-.281.071-.367.334-.326a1.58,1.58,0,0,0,.246,0c.44,0,.435,0,.49.448.008.061.086.13.149.166.325.184.674.333.978.546a1.2,1.2,0,0,1,.344.5c.186.418.142.473-.3.473-.113,0-.226-.006-.338,0a.433.433,0,0,1-.43-.191,1.507,1.507,0,0,0-1.885-.024.26.26,0,0,0,.076.454,7.459,7.459,0,0,0,.956.272,7.4,7.4,0,0,1,1.168.318,1.341,1.341,0,0,1,.842,1.256,1.423,1.423,0,0,1-.809,1.254,1.069,1.069,0,0,1-.333.152c-.32.059-.516.19-.437.56.008.037-.1.133-.157.143a2.823,2.823,0,0,1-.43.007c-.425,0-.418,0-.475-.432-.009-.069-.1-.146-.174-.183-.261-.136-.544-.236-.791-.392a1.191,1.191,0,0,1-.394-.421,3.447,3.447,0,0,1-.208-.63Z" transform="translate(-141.861 -298.587)" fill="#888" stroke="#707070" stroke-width="0.25"/>
  </g>
</svg>
