<svg xmlns="http://www.w3.org/2000/svg" width="21.291" height="24.22" viewBox="0 0 21.291 24.22">
  <g id="Group_2583" data-name="Group 2583" transform="translate(-278 160)">
    <g id="Group_1052" data-name="Group 1052" transform="translate(278 -160)">
      <path id="Path_887" data-name="Path 887" d="M258.394,165a5,5,0,0,1,.821.321,2.046,2.046,0,0,1,1.022,1.781c.01.283.012.568,0,.851a.224.224,0,0,0,.183.264,7.222,7.222,0,0,1,4.854,5.423,8.321,8.321,0,0,1,.165,1.617c.035,1.023-.009,2.051.057,3.071a10.653,10.653,0,0,0,2.088,5.678c.282.387.6.748.92,1.108a.726.726,0,0,1-.557,1.27c-2.041,0-4.083,0-6.124-.008-.189,0-.25.058-.3.228a3.535,3.535,0,0,1-6.827,0,.251.251,0,0,0-.3-.227q-3.086.013-6.171,0a.706.706,0,0,1-.675-1.039,1.115,1.115,0,0,1,.17-.225,10.856,10.856,0,0,0,2.83-5.505,16.694,16.694,0,0,0,.217-2.3c.044-.952-.027-1.911.059-2.858a7.109,7.109,0,0,1,3.065-5.277,6.519,6.519,0,0,1,1.909-.959c.15-.047.184-.118.182-.265a7.179,7.179,0,0,1,.029-1.132,2.069,2.069,0,0,1,1.756-1.787.187.187,0,0,0,.055-.034Zm8.112,19.956c-.069-.1-.117-.17-.166-.239a12.179,12.179,0,0,1-2.271-6.384c-.06-1.006-.026-2.017-.049-3.026a8.658,8.658,0,0,0-.092-1.152,5.909,5.909,0,0,0-11.73,1.077c0,.788.009,1.577,0,2.365a12.483,12.483,0,0,1-2.337,7.156c-.043.06-.081.124-.133.2Zm-10.386,1.431a2.118,2.118,0,0,0,2.169,1.408,2.054,2.054,0,0,0,1.792-1.408Zm2.708-18.976h-.009c0-.1,0-.2,0-.306a.708.708,0,0,0-1.416.013c-.007.2,0,.409,0,.613,0,.107.014.148.142.138.281-.022.565-.021.847-.025.138,0,.353.062.4,0C258.857,167.74,258.819,167.559,258.827,167.411Z" transform="translate(-247.464 -165)" fill="#888"/>
      <path id="Path_888" data-name="Path 888" d="M247.488,211.135a10.57,10.57,0,0,1,3.09-7.218.716.716,0,0,1,1.018-.039.706.706,0,0,1,0,1.017,9.633,9.633,0,0,0-1.654,2.257,9.208,9.208,0,0,0-1.041,4.171,1.1,1.1,0,0,1-.047.324.7.7,0,0,1-.756.473.722.722,0,0,1-.613-.654C247.481,211.356,247.488,211.245,247.488,211.135Z" transform="translate(-247.484 -201.244)" fill="#888"/>
      <path id="Path_889" data-name="Path 889" d="M520.762,211.148a2.331,2.331,0,0,1,0,.4.707.707,0,0,1-1.4-.134,9.718,9.718,0,0,0-.28-2.243,9.1,9.1,0,0,0-2.246-4.087c-.059-.063-.122-.124-.179-.189a.71.71,0,1,1,1.036-.969,10.7,10.7,0,0,1,1.565,2.006A10.52,10.52,0,0,1,520.762,211.148Z" transform="translate(-499.483 -201.249)" fill="#888"/>
    </g>
  </g>
</svg>
