<svg xmlns="http://www.w3.org/2000/svg" width="72.626" height="70.583" viewBox="0 0 72.626 70.583">
  <g id="Group_4925" data-name="Group 4925" transform="translate(0 0)">
    <path id="Path_3131" data-name="Path 3131" d="M-240.03-82.478c-10.6-9.2-27.13-12.1-40.622-9.015-7.612,1.738-14.6,6.058-18.123,13.237l-.11.225a19.579,19.579,0,0,0-2.163,8.494c.02,4.475,3.289,7.71,3.983,11.942.5,3.021-.81,6.112-2.2,8.718-2.244,4.2-5.31,8.82-4.546,13.822,1.487,9.733,15.751,11.12,23.3,12.149a95.886,95.886,0,0,0,25.029-.02c25.711-3.285,12.006-17.669,11.893-25.371-.05-3.4,2.682-4.655,5.372-5.868,3.362-1.516,5.981-3.515,6.663-7.371,1.117-6.327-1.705-13.388-5.738-18.165A25.285,25.285,0,0,0-240.03-82.478Z" transform="translate(303.932 92.679)" fill="#fff1eb"/>
    <path id="Path_3132" data-name="Path 3132" d="M-240.03-82.478c-10.6-9.2-27.13-12.1-40.622-9.015-7.612,1.738-14.6,6.058-18.123,13.237l-.11.225a19.579,19.579,0,0,0-2.163,8.494c.02,4.475,3.289,7.71,3.983,11.942.5,3.021-.81,6.112-2.2,8.718-2.244,4.2-5.31,8.82-4.546,13.822,1.487,9.733,15.751,11.12,23.3,12.149a95.886,95.886,0,0,0,25.029-.02c25.711-3.285,12.006-17.669,11.893-25.371-.05-3.4,2.682-4.655,5.372-5.868,3.362-1.516,5.981-3.515,6.663-7.371,1.117-6.327-1.705-13.388-5.738-18.165A25.285,25.285,0,0,0-240.03-82.478Z" transform="translate(303.932 92.679)" fill="#fff1eb" opacity="0.7"/>
  </g>
</svg>
