<svg xmlns="http://www.w3.org/2000/svg" width="10.498" height="10.498" viewBox="0 0 10.498 10.498">
  <path id="building" d="M8.3,5.149h.525a.525.525,0,0,0,0-1.05H8.3a.525.525,0,0,0,0,1.05Zm0,2.1h.525a.525.525,0,1,0,0-1.05H8.3a.525.525,0,0,0,0,1.05Zm-2.625-2.1H6.2a.525.525,0,0,0,0-1.05H5.674a.525.525,0,1,0,0,1.05Zm0,2.1H6.2a.525.525,0,0,0,0-1.05H5.674a.525.525,0,1,0,0,1.05Zm6.3,4.2h-.525V2.525A.525.525,0,0,0,10.923,2H3.575a.525.525,0,0,0-.525.525v8.923H2.525a.525.525,0,0,0,0,1.05h9.448a.525.525,0,0,0,0-1.05Zm-4.2,0H6.724v-2.1h1.05Zm2.625,0H8.824V8.824A.525.525,0,0,0,8.3,8.3H6.2a.525.525,0,0,0-.525.525v2.625H4.1V3.05h6.3Z" transform="translate(-2 -2)" fill="#f26511"/>
</svg>
