<svg id="Group_2815" data-name="Group 2815" xmlns="http://www.w3.org/2000/svg" width="11.091" height="7.886" viewBox="0 0 11.091 7.886">
  <path id="Path_2030" data-name="Path 2030" d="M-882.929,710.764a.609.609,0,0,1-.46.39,2.888,2.888,0,0,0-1.092.634c-.132.112-.252.238-.381.352a.224.224,0,0,0-.08.187q0,2.631,0,5.261c0,.1-.02.129-.126.129q-4.417-.005-8.834,0c-.1,0-.123-.021-.123-.121q0-3.177,0-6.355c0-.1.022-.123.121-.123q2.826,0,5.651,0a.244.244,0,0,0,.2-.082c.063-.069.133-.132.2-.2a.482.482,0,0,1,.719.015l.007.008a.546.546,0,0,0,.6.257,1.341,1.341,0,0,1,.346,0,.468.468,0,0,0,.384-.145,4.849,4.849,0,0,1,1.915-1.067c.107-.029.216-.056.326-.074a.49.49,0,0,1,.559.421c.02.1.044.192.067.288Zm-3.544,1.514-.121-.131c-.288-.313-.578-.625-.863-.941-.051-.057-.081-.056-.133,0q-.193.2-.4.382c-.056.051-.068.078-.005.139q.772.759,1.535,1.526c.062.063.083.054.124-.016a7.1,7.1,0,0,1,1.285-1.647,3.915,3.915,0,0,1,1.374-.894c.076-.027.193-.038.217-.091s-.022-.164-.031-.249c-.007-.066-.036-.07-.095-.058a3.641,3.641,0,0,0-1.155.459A7.076,7.076,0,0,0-886.473,712.278Zm.051,3.212c.076-.034.143-.057.2-.091a.581.581,0,0,0,.32-.548.5.5,0,0,0-.337-.484,1.38,1.38,0,0,0-1.252.118c-.042.025-.043.045-.015.083a2.6,2.6,0,0,1,.161.243c.034.06.066.054.117.023a.81.81,0,0,1,.532-.132c.178.022.263.089.277.229a.281.281,0,0,1-.222.342,1.1,1.1,0,0,1-.212.035c-.1.009-.246-.027-.287.024s-.013.2-.021.3c-.006.073.028.079.088.081a3.514,3.514,0,0,1,.441.033.269.269,0,0,1,.254.262c.01.191-.058.318-.225.356a1.28,1.28,0,0,1-.425.03,4.2,4.2,0,0,1-.518-.127c0,.11,0,.225,0,.34a.091.091,0,0,0,.074.107,1.941,1.941,0,0,0,.937.083.9.9,0,0,0,.535-.255.611.611,0,0,0-.169-.984C-886.244,715.535-886.325,715.518-886.422,715.49Zm-3.372.862c.038-.042.058-.065.08-.086.162-.154.335-.3.485-.464a2.209,2.209,0,0,0,.381-.5.663.663,0,0,0-.472-1,1.147,1.147,0,0,0-.979.221c-.136.1-.136.1-.029.232a1.686,1.686,0,0,1,.124.15c.038.058.069.052.118.013a.88.88,0,0,1,.434-.2c.253-.036.419.123.357.369a.854.854,0,0,1-.178.349c-.246.278-.5.55-.77.8a.512.512,0,0,0-.186.47c.008.061.012.086.083.085q.785-.005,1.57,0c.063,0,.091-.011.086-.082a1.8,1.8,0,0,1,0-.27c.005-.073-.021-.089-.09-.088C-889.108,716.354-889.436,716.352-889.793,716.352Zm-2.752-1.5v.129c0,.57,0,1.141,0,1.711,0,.075.015.1.094.1a2.484,2.484,0,0,1,.325,0c.082.005.108-.015.107-.1,0-.711,0-1.422,0-2.133,0-.242,0-.235-.246-.245a.447.447,0,0,0-.34.12c-.126.113-.265.211-.4.318-.08.065-.213.13-.22.2s.114.161.174.246c.036.051.06.053.107.01C-892.823,715.094-892.693,714.984-892.546,714.856Z" transform="translate(894.02 -709.832)" fill="#f26511"/>
</svg>
