<svg xmlns="http://www.w3.org/2000/svg" width="18.016" height="18.021" viewBox="0 0 18.016 18.021">
  <path id="Path_3160" data-name="Path 3160" d="M120.04,270.676h-.176l-.174-.034-.177.034H119.3l-.177-.034-.21.034H118.7l-.542-.081a9.045,9.045,0,0,1-7.659-7.577l-.1-.646v-.211l.034-.21-.034-.177v-.211l.034-.177-.034-.21v-.211a.409.409,0,0,0,.034-.089c.041-.3.063-.594.121-.886a9.028,9.028,0,0,1,10.527-7.169,8.682,8.682,0,0,1,5.4,3.291,8.779,8.779,0,0,1,1.842,6.8,8.65,8.65,0,0,1-2.106,4.639,8.87,8.87,0,0,1-5.465,3.024C120.519,270.611,120.279,270.642,120.04,270.676Zm-4.52-14.521,9.4,9.4a6.744,6.744,0,0,0-9.4-9.4Zm-1.625,1.623a6.742,6.742,0,0,0,9.4,9.4Z" transform="translate(-110.4 -252.655)" fill="#fcfcfc"/>
</svg>
