<svg xmlns="http://www.w3.org/2000/svg" width="66" height="23" viewBox="0 0 66 23">
  <g id="Group_5680" data-name="Group 5680" transform="translate(-293 -99)">
    <text id="التصنيف" transform="translate(303 113.91)" fill="#989898" font-size="11" font-family="Cairo-Light, Cairo" font-weight="300"><tspan x="0" y="0">التصنيف</tspan></text>
    <g id="Rectangle_1984" data-name="Rectangle 1984" transform="translate(293 99)" fill="none" stroke="#707070" stroke-width="0.25">
      <rect width="66" height="23" rx="5" stroke="none"/>
      <rect x="0.125" y="0.125" width="65.75" height="22.75" rx="4.875" fill="none"/>
    </g>
    <g id="Group_2782" data-name="Group 2782" transform="translate(-154.729 -177.91)">
      <path id="Path_2967" data-name="Path 2967" d="M495.746,286.138q0-1.169,0-2.339a1.015,1.015,0,0,1,1.053-1.058h2.658a1.013,1.013,0,0,1,1.052,1.047q0,2.355,0,4.709a1.013,1.013,0,0,1-1.052,1.047H496.8a1.015,1.015,0,0,1-1.053-1.058Q495.746,287.313,495.746,286.138Zm.68,0q0,1.163,0,2.327a.354.354,0,0,0,.4.4h2.6a.355.355,0,0,0,.4-.405q0-2.316,0-4.633a.355.355,0,0,0-.4-.405h-2.593c-.278,0-.407.13-.407.41Q496.427,284.985,496.427,286.138Z" transform="translate(-0.017 -0.024)" fill="#f26511"/>
      <path id="Path_2968" data-name="Path 2968" d="M687.745,406.142q0-1.175,0-2.349a1.014,1.014,0,0,1,1.047-1.052h2.668a1.013,1.013,0,0,1,1.047,1.042q0,2.36,0,4.72a1.014,1.014,0,0,1-1.047,1.042h-2.668a1.014,1.014,0,0,1-1.047-1.053Q687.745,407.316,687.745,406.142Zm.68,0q0,1.158,0,2.316a.355.355,0,0,0,.4.4h2.593a.355.355,0,0,0,.4-.4q0-2.316,0-4.633a.358.358,0,0,0-.411-.408h-2.582a.356.356,0,0,0-.409.408Q688.426,404.986,688.426,406.145Z" transform="translate(-186.573 -116.62)" fill="#f26511"/>
      <path id="Path_2969" data-name="Path 2969" d="M690.1,285.439c-.446,0-.893,0-1.339,0a1.015,1.015,0,0,1-1.032-1.036c0-.227,0-.454,0-.68a1.014,1.014,0,0,1,1.009-1q1.371,0,2.742,0a1.014,1.014,0,0,1,1.01,1.014q0,.345,0,.691a1.015,1.015,0,0,1-1.02,1.016C691.015,285.441,690.558,285.439,690.1,285.439Zm.015-2.041c-.446,0-.892,0-1.338,0a.344.344,0,0,0-.368.363c0,.209,0,.418,0,.627a.348.348,0,0,0,.373.37h2.655a.349.349,0,0,0,.374-.38q0-.3,0-.595a.352.352,0,0,0-.389-.386Z" transform="translate(-186.557 0)" fill="#f26511"/>
      <path id="Path_2970" data-name="Path 2970" d="M498.11,549.44c-.45,0-.9,0-1.35,0a1.015,1.015,0,0,1-1.03-1.027c0-.227,0-.454,0-.68a1.014,1.014,0,0,1,1.011-1.014q1.371,0,2.743,0a1.013,1.013,0,0,1,1.009,1.005q0,.356,0,.712a1.015,1.015,0,0,1-1,1C499.031,549.442,498.571,549.44,498.11,549.44Zm0-.68c.443,0,.885,0,1.328,0a.346.346,0,0,0,.37-.362q0-.319,0-.637a.344.344,0,0,0-.361-.36q-1.338,0-2.676,0a.344.344,0,0,0-.364.367c0,.2,0,.4,0,.595a.354.354,0,0,0,.4.4Z" transform="translate(0 -256.516)" fill="#f26511"/>
    </g>
  </g>
</svg>
