<svg xmlns="http://www.w3.org/2000/svg" width="17.693" height="17.695" viewBox="0 0 17.693 17.695">
  <g id="Group_4939" data-name="Group 4939" transform="translate(-3371.641 -3830.854)">
    <path id="Path_2898" data-name="Path 2898" d="M682.073,331.026c.033-.188.071-.375.1-.563a8.847,8.847,0,1,1,17.382,3.254.565.565,0,1,1-1.109-.219,8.342,8.342,0,0,0,.206-1.846,7.734,7.734,0,1,0-9.57,7.649,7.582,7.582,0,0,0,5.417-.656.557.557,0,1,1,.508.984,8.955,8.955,0,0,1-3.122.956c-.1.012-.208.03-.312.045h-1.382a.385.385,0,0,0-.086-.034c-.279-.039-.561-.061-.836-.116a8.769,8.769,0,0,1-5.181-3.072,8.652,8.652,0,0,1-1.914-4.28c-.031-.206-.068-.411-.1-.616v-1.485Z" transform="translate(2689.568 3507.918)" fill="#fcfcfc"/>
    <path id="Path_2899" data-name="Path 2899" d="M817.6,480.084c-.348-.181-.482-.418-.4-.7a.553.553,0,0,1,.553-.4.552.552,0,0,1,.241,1.043l-.12.063Z" transform="translate(2568.824 3368.465)" fill="#fcfcfc"/>
    <path id="Path_2900" data-name="Path 2900" d="M761.361,489.376h0Z" transform="translate(2618.709 3359.172)" fill="#fcfcfc"/>
    <path id="Path_2901" data-name="Path 2901" d="M682.073,401.64v0Z" transform="translate(2689.568 3437.581)" fill="#fcfcfc"/>
    <path id="Path_2902" data-name="Path 2902" d="M682.073,410.088v0Z" transform="translate(2689.568 3430.031)" fill="#fcfcfc"/>
    <path id="Path_2903" data-name="Path 2903" d="M738.408,357.491c0,.9,0,1.8,0,2.693a.624.624,0,0,1-.3.564q-1.6,1.064-3.195,2.128a.6.6,0,0,1-.872-.161.567.567,0,0,1,.229-.76q.981-.656,1.964-1.307c.311-.207.619-.417.934-.618a.256.256,0,0,0,.134-.248q-.007-2.529,0-5.058a.539.539,0,0,1,.378-.536.517.517,0,0,1,.61.193.725.725,0,0,1,.112.367C738.412,355.662,738.408,356.577,738.408,357.491Z" transform="translate(2643.182 3480.017)" fill="#fcfcfc"/>
    <path id="Path_2904" data-name="Path 2904" d="M818.356,419.326q0,1.071,0,2.141a.555.555,0,1,1-1.105.009q0-2.184,0-4.368a.552.552,0,0,1,1.082-.161.709.709,0,0,1,.022.2Q818.357,418.238,818.356,419.326Z" transform="translate(2568.761 3424.256)" fill="#fcfcfc"/>
  </g>
</svg>
