<svg id="Group_5641" data-name="Group 5641" xmlns="http://www.w3.org/2000/svg" width="23.95" height="29.709" viewBox="0 0 23.95 29.709">
  <path id="Path_3496" data-name="Path 3496" d="M77.345,618.6a16.33,16.33,0,0,1-7.551-1.734c-.876-.431-1.714-.941-2.552-1.445-.556-.334-.591-.688-.185-1.2a67,67,0,0,0,6.233-9.048,21.179,21.179,0,0,0,1.773-3.965,4.535,4.535,0,0,0-.256-3.276,11.681,11.681,0,0,1-.552-1.617,2.635,2.635,0,0,1,.15-1.876,4.2,4.2,0,0,0,.132-3.212c-.134-.453-.281-.9-.434-1.349s-.03-.8.33-.941a.663.663,0,0,1,.882.467,11.469,11.469,0,0,1,.78,3.094.292.292,0,0,0,.228.3,6.086,6.086,0,0,1,2.279,1.42c.121.12.189.127.314,0a6.4,6.4,0,0,1,2.3-1.444.354.354,0,0,0,.188-.244,12.008,12.008,0,0,1,.784-3.094c.177-.454.521-.637.9-.483s.479.5.316.945a8.933,8.933,0,0,0-.676,2.844,2.431,2.431,0,0,0,.173,1.093,4.336,4.336,0,0,1-.14,4,4.179,4.179,0,0,0-.4,2.979,15.229,15.229,0,0,0,.75,2.109,43.961,43.961,0,0,0,4.771,7.9c.853,1.177,1.759,2.316,2.643,3.471.17.222.306.476.14.726a1.822,1.822,0,0,1-.517.4c-.037.025-.108.008-.161,0a13.5,13.5,0,0,0-8.462,1.837A9.127,9.127,0,0,1,77.345,618.6Z" transform="translate(-66.784 -588.895)" fill="#fff"/>
</svg>
