<svg xmlns="http://www.w3.org/2000/svg" width="10.017" height="10.014" viewBox="0 0 10.017 10.014">
  <g id="Group_2783" data-name="Group 2783" transform="translate(-177.808 -184)">
    <path id="Path_2971" data-name="Path 2971" d="M182.193,184a.41.41,0,0,1,.313.471c0,1.257,0,2.515,0,3.772a.429.429,0,0,1-.45.454q-1.9-.012-3.8,0a.429.429,0,0,1-.45-.454c.009-1.257,0-2.515,0-3.772a.41.41,0,0,1,.313-.471Zm-.469,2.35c0-.492,0-.984,0-1.476,0-.067-.007-.094-.087-.093q-1.481.005-2.963,0c-.072,0-.083.022-.083.087q0,1.481,0,2.963c0,.072.022.083.087.083q1.481,0,2.963,0c.072,0,.083-.022.083-.087C181.722,187.334,181.723,186.842,181.723,186.35Z" fill="#f26511"/>
    <path id="Path_2972" data-name="Path 2972" d="M454.575,460.337a.407.407,0,0,1-.4.293H450.3a.395.395,0,0,1-.3-.681l.034-.035,3.824-3.824a.4.4,0,0,1,.551-.079.5.5,0,0,1,.161.237Zm-3.34-.494a.161.161,0,0,0,.025.005c.821,0,1.643,0,2.464,0,.083,0,.068-.043.068-.091q0-1.2,0-2.4c0-.023.013-.051-.009-.069Z" transform="translate(-266.75 -266.617)" fill="#f26511"/>
    <path id="Path_2973" data-name="Path 2973" d="M454.482,186.621a.944.944,0,0,0-.059.259,2.346,2.346,0,1,1-3.816-2.311,2.271,2.271,0,0,1,1.207-.547c.018,0,.041.006.048-.021h.508a1.273,1.273,0,0,0,.25.048,2.339,2.339,0,0,1,1.806,1.786,1.1,1.1,0,0,0,.056.259Zm-.783-.275a1.564,1.564,0,1,0-1.566,1.565A1.576,1.576,0,0,0,453.7,186.346Z" transform="translate(-266.657)" fill="#f26511"/>
    <path id="Path_2974" data-name="Path 2974" d="M182.264,460.611a.435.435,0,0,1-.336-.149c-.522-.524-1.047-1.045-1.567-1.571-.063-.064-.092-.055-.149,0-.521.525-1.045,1.047-1.567,1.571a.4.4,0,0,1-.432.128.389.389,0,0,1-.2-.6.865.865,0,0,1,.092-.1q.781-.782,1.563-1.561c.051-.051.054-.075,0-.128-.53-.525-1.056-1.054-1.585-1.581a.4.4,0,0,1-.128-.423.388.388,0,0,1,.6-.2.882.882,0,0,1,.1.092q.778.777,1.554,1.557c.06.06.087.053.142,0,.523-.528,1.05-1.052,1.574-1.578a.4.4,0,0,1,.423-.126.388.388,0,0,1,.2.606.912.912,0,0,1-.092.1q-.777.778-1.556,1.554c-.053.052-.057.079,0,.134.53.525,1.056,1.054,1.585,1.581a.4.4,0,0,1,.123.424A.378.378,0,0,1,182.264,460.611Z" transform="translate(-0.129 -266.598)" fill="#f26511"/>
  </g>
</svg>
