<svg id="Group_1109" data-name="Group 1109" xmlns="http://www.w3.org/2000/svg" width="31.533" height="31.532" viewBox="0 0 31.533 31.532">
  <path id="Path_940" data-name="Path 940" d="M1417.331,673.543h.37l.315.055a2.853,2.853,0,0,1,1.642.881q1.583,1.588,3.17,3.171c.072.072.149.14.269.251,0-1.111.019-2.143-.008-3.174a1.1,1.1,0,0,1,.707-1.184h4.434a1.218,1.218,0,0,1,.68,1.269c-.019,2.883-.006,5.767-.013,8.65a.577.577,0,0,0,.189.453q1.662,1.647,3.309,3.308a2.9,2.9,0,0,1-2.2,4.977c-.262-.013-.313.047-.313.3q.015,4.495.006,8.989a3.407,3.407,0,0,1-3.567,3.582q-2.832,0-5.665,0c-.755,0-1.1-.352-1.1-1.113,0-2.165-.005-4.33.007-6.5,0-.263-.073-.318-.324-.315q-1.724.021-3.448,0c-.255,0-.323.061-.321.318.011,2.186.007,4.371.005,6.557a.946.946,0,0,1-1.045,1.049c-1.939,0-3.879,0-5.818,0a3.683,3.683,0,0,1-.852-.1,3.375,3.375,0,0,1-2.618-3.361q-.009-4.572,0-9.143c0-.232-.05-.28-.284-.269a2.88,2.88,0,0,1-3.032-2.214,1.41,1.41,0,0,0-.078-.185v-.985a5.124,5.124,0,0,1,1.7-2.412q3.924-3.908,7.834-7.831,2.056-2.056,4.112-4.112a2.818,2.818,0,0,1,1.622-.863Zm10.712,22.961c0-1.714,0-3.428-.008-5.142a.7.7,0,0,0-.186-.447q-5.062-5.083-10.135-10.156c-.171-.172-.249-.146-.4.01q-5.066,5.08-10.138,10.154a.662.662,0,0,0-.178.42q-.015,5.127-.006,10.253a1.549,1.549,0,0,0,1.621,1.628c1.581,0,3.161,0,4.742.007.236,0,.283-.064.283-.289-.009-2.186-.006-4.372-.005-6.558a.944.944,0,0,1,1.076-1.075q2.8,0,5.6,0c.75,0,1.094.344,1.094,1.087,0,2.166,0,4.331-.005,6.5,0,.254.037.345.325.341,1.539-.018,3.079-.008,4.619-.009a1.568,1.568,0,0,0,1.7-1.7Q1428.044,699.014,1428.043,696.5Zm3.389-7.14a1.245,1.245,0,0,0-.432-.934q-6.306-6.3-12.608-12.6a1.091,1.091,0,0,0-1.759,0l-12.584,12.585a2.032,2.032,0,0,0-.249.272,1.059,1.059,0,0,0,.832,1.677,1.191,1.191,0,0,0,.911-.435q5.57-5.577,11.146-11.149a.985.985,0,0,1,1.654,0l11.1,11.1a2.689,2.689,0,0,0,.267.255,1.065,1.065,0,0,0,1.717-.778Zm-4.377-7.5c0-2.134,0-4.193,0-6.252,0-.162-.026-.234-.212-.23q-.845.019-1.69,0c-.182,0-.216.058-.215.226.007,1.322,0,2.643.007,3.965a.391.391,0,0,0,.069.251C1425.675,680.5,1426.342,681.158,1427.055,681.868Z" transform="translate(-1401.75 -673.543)" fill="#ef723c"/>
  <path id="Path_941" data-name="Path 941" d="M1587.653,673.6a.048.048,0,0,0,.008-.055h.308Z" transform="translate(-1572.389 -673.543)" fill="#ef723c"/>
  <path id="Path_942" data-name="Path 942" d="M1596.308,673.543a.046.046,0,0,0,.008.055l-.316-.055Z" transform="translate(-1580.05 -673.543)" fill="#ef723c"/>
</svg>
