<svg xmlns="http://www.w3.org/2000/svg" width="15" height="15.002" viewBox="0 0 15 15.002">
  <g id="Group_4948" data-name="Group 4948" transform="translate(98.008 -1461.915)">
    <path id="Path_3161" data-name="Path 3161" d="M-93.316,1499a1.517,1.517,0,0,0-.068-.281.511.511,0,0,0-.109-.191.1.1,0,0,0-.1-.027.354.354,0,0,0-.132.054,1.434,1.434,0,0,0-.152.111c-.053.044-.1.09-.152.139a1.732,1.732,0,0,0-.145.168q-.073.1-.134.193a1.6,1.6,0,0,0-.1.2.992.992,0,0,0-.061.179,1.688,1.688,0,0,0,.234.057c.093.016.19.031.293.043a2.716,2.716,0,0,0,.313.018,1.719,1.719,0,0,0,.291-.023,1.449,1.449,0,0,0,.041-.313A1.893,1.893,0,0,0-93.316,1499Zm0,0a1.517,1.517,0,0,0-.068-.281.511.511,0,0,0-.109-.191.1.1,0,0,0-.1-.027.354.354,0,0,0-.132.054,1.434,1.434,0,0,0-.152.111c-.053.044-.1.09-.152.139a1.732,1.732,0,0,0-.145.168q-.073.1-.134.193a1.6,1.6,0,0,0-.1.2.992.992,0,0,0-.061.179,1.688,1.688,0,0,0,.234.057c.093.016.19.031.293.043a2.716,2.716,0,0,0,.313.018,1.719,1.719,0,0,0,.291-.023,1.449,1.449,0,0,0,.041-.313A1.893,1.893,0,0,0-93.316,1499Zm0,0a1.517,1.517,0,0,0-.068-.281.511.511,0,0,0-.109-.191.1.1,0,0,0-.1-.027.354.354,0,0,0-.132.054,1.434,1.434,0,0,0-.152.111c-.053.044-.1.09-.152.139a1.732,1.732,0,0,0-.145.168q-.073.1-.134.193a1.6,1.6,0,0,0-.1.2.992.992,0,0,0-.061.179,1.688,1.688,0,0,0,.234.057c.093.016.19.031.293.043a2.716,2.716,0,0,0,.313.018,1.719,1.719,0,0,0,.291-.023,1.449,1.449,0,0,0,.041-.313A1.893,1.893,0,0,0-93.316,1499Zm0,0a1.517,1.517,0,0,0-.068-.281.511.511,0,0,0-.109-.191.1.1,0,0,0-.1-.027.354.354,0,0,0-.132.054,1.434,1.434,0,0,0-.152.111c-.053.044-.1.09-.152.139a1.732,1.732,0,0,0-.145.168q-.073.1-.134.193a1.6,1.6,0,0,0-.1.2.992.992,0,0,0-.061.179,1.688,1.688,0,0,0,.234.057c.093.016.19.031.293.043a2.716,2.716,0,0,0,.313.018,1.719,1.719,0,0,0,.291-.023,1.449,1.449,0,0,0,.041-.313A1.893,1.893,0,0,0-93.316,1499Zm0,0a1.517,1.517,0,0,0-.068-.281.511.511,0,0,0-.109-.191.1.1,0,0,0-.1-.027.354.354,0,0,0-.132.054,1.434,1.434,0,0,0-.152.111c-.053.044-.1.09-.152.139a1.732,1.732,0,0,0-.145.168q-.073.1-.134.193a1.6,1.6,0,0,0-.1.2.992.992,0,0,0-.061.179,1.688,1.688,0,0,0,.234.057c.093.016.19.031.293.043a2.716,2.716,0,0,0,.313.018,1.719,1.719,0,0,0,.291-.023,1.449,1.449,0,0,0,.041-.313A1.893,1.893,0,0,0-93.316,1499Zm0,0a1.517,1.517,0,0,0-.068-.281.511.511,0,0,0-.109-.191.1.1,0,0,0-.1-.027.354.354,0,0,0-.132.054,1.434,1.434,0,0,0-.152.111c-.053.044-.1.09-.152.139a1.732,1.732,0,0,0-.145.168q-.073.1-.134.193a1.6,1.6,0,0,0-.1.2.992.992,0,0,0-.061.179,1.688,1.688,0,0,0,.234.057c.093.016.19.031.293.043a2.716,2.716,0,0,0,.313.018,1.719,1.719,0,0,0,.291-.023,1.449,1.449,0,0,0,.041-.313A1.893,1.893,0,0,0-93.316,1499Zm0,0a1.517,1.517,0,0,0-.068-.281.511.511,0,0,0-.109-.191.1.1,0,0,0-.1-.027.354.354,0,0,0-.132.054,1.434,1.434,0,0,0-.152.111c-.053.044-.1.09-.152.139a1.732,1.732,0,0,0-.145.168q-.073.1-.134.193a1.6,1.6,0,0,0-.1.2.992.992,0,0,0-.061.179,1.688,1.688,0,0,0,.234.057c.093.016.19.031.293.043a2.716,2.716,0,0,0,.313.018,1.719,1.719,0,0,0,.291-.023,1.449,1.449,0,0,0,.041-.313A1.893,1.893,0,0,0-93.316,1499Zm0,0a1.517,1.517,0,0,0-.068-.281.511.511,0,0,0-.109-.191.1.1,0,0,0-.1-.027.354.354,0,0,0-.132.054,1.434,1.434,0,0,0-.152.111c-.053.044-.1.09-.152.139a1.732,1.732,0,0,0-.145.168q-.073.1-.134.193a1.6,1.6,0,0,0-.1.2.992.992,0,0,0-.061.179,1.688,1.688,0,0,0,.234.057c.093.016.19.031.293.043a2.716,2.716,0,0,0,.313.018,1.719,1.719,0,0,0,.291-.023,1.449,1.449,0,0,0,.041-.313A1.893,1.893,0,0,0-93.316,1499Zm9.179-5.1q-1.368-1.377-2.744-2.745a.2.2,0,0,0-.148-.056q-1.24.209-2.477.431a.9.9,0,0,0-.528.219q-3.795,3.807-7.595,7.609a1.364,1.364,0,0,0-.313.483,1.058,1.058,0,0,0,.316,1.169q1.741,1.738,3.478,3.481a1.736,1.736,0,0,0,.828.541H-93a1.68,1.68,0,0,0,.821-.524q2.443-2.455,4.9-4.9c.856-.856,1.713-1.711,2.562-2.574a.689.689,0,0,0,.179-.337c.162-.872.312-1.746.459-2.621A.231.231,0,0,0-84.137,1493.9Zm-6.568,7.444c-.033.061-.074.127-.123.2s-.1.147-.163.222a2.575,2.575,0,0,1-.186.209,1.939,1.939,0,0,1-.445.332,1.463,1.463,0,0,1-.524.17,1.283,1.283,0,0,1-.556-.057,1.379,1.379,0,0,1-.545-.354,1.466,1.466,0,0,1-.313-.44,1.5,1.5,0,0,1-.123-.454,1.733,1.733,0,0,1,.011-.443,3.441,3.441,0,0,1,.089-.406c-.1,0-.207,0-.322,0s-.229-.017-.341-.032a2.52,2.52,0,0,1-.316-.062,1.326,1.326,0,0,1-.257-.093l-.382-.336a2.2,2.2,0,0,1,.082-.427,2.567,2.567,0,0,1,.159-.413,2.937,2.937,0,0,1,.211-.365,2.043,2.043,0,0,1,.238-.293,2.033,2.033,0,0,1,.425-.333,1.4,1.4,0,0,1,.4-.161.794.794,0,0,1,.343-.007.493.493,0,0,1,.248.13,1.315,1.315,0,0,1,.159.2,1.475,1.475,0,0,1,.148.3,2.059,2.059,0,0,1,.1.411,2.765,2.765,0,0,1,.023.54.856.856,0,0,0,.125-.106l.184-.184.34-.34.437-.437a.194.194,0,0,0,.07-.2.52.52,0,0,0-.138-.207l-1.044-1.044.517-.518.863.863a.7.7,0,0,0,.386.214.516.516,0,0,0,.431-.2l.116-.116.005-.006.037-.037.59-.59-1.281-1.281.517-.518,1.808,1.807-1.108,1.108-.032.032-.141.141a.7.7,0,0,1-.416.225,1,1,0,0,1-.393-.025.9.9,0,0,1,0,.434.863.863,0,0,1-.243.416l-.458.458-.345.345a2.319,2.319,0,0,1-.544.417,2.642,2.642,0,0,1-.453.2q-.059.169-.1.338a1.414,1.414,0,0,0-.042.332.913.913,0,0,0,.054.314.788.788,0,0,0,.191.286.672.672,0,0,0,.53.215.975.975,0,0,0,.613-.331,1.393,1.393,0,0,0,.116-.135q.062-.08.116-.162c.037-.055.07-.108.1-.16s.053-.094.068-.128l.545.4A.919.919,0,0,1-90.705,1501.342Zm.563-1.748a.378.378,0,0,1-.271.12.361.361,0,0,1-.267-.113.354.354,0,0,1-.108-.263.378.378,0,0,1,.12-.271.378.378,0,0,1,.271-.12.352.352,0,0,1,.263.108.361.361,0,0,1,.113.267A.379.379,0,0,1-90.142,1499.594Zm.7-.7a.378.378,0,0,1-.271.12.361.361,0,0,1-.267-.113.354.354,0,0,1-.108-.263.378.378,0,0,1,.12-.271.379.379,0,0,1,.271-.12.351.351,0,0,1,.263.108.359.359,0,0,1,.113.267A.379.379,0,0,1-89.439,1498.89Zm1.247-1.247a.385.385,0,0,1-.271.12.357.357,0,0,1-.269-.111.348.348,0,0,1-.107-.264.385.385,0,0,1,.12-.271.377.377,0,0,1,.267-.116.351.351,0,0,1,.264.107.358.358,0,0,1,.111.269A.377.377,0,0,1-88.192,1497.643Zm1.336-3.118a.651.651,0,0,1-.647-.654.651.651,0,0,1,.654-.648.654.654,0,0,1,.648.655A.653.653,0,0,1-86.856,1494.525Zm-6.529,4.2a.511.511,0,0,0-.109-.191.1.1,0,0,0-.1-.027.354.354,0,0,0-.132.054,1.434,1.434,0,0,0-.152.111c-.053.044-.1.09-.152.139a1.732,1.732,0,0,0-.145.168q-.073.1-.134.193a1.6,1.6,0,0,0-.1.2.992.992,0,0,0-.061.179,1.688,1.688,0,0,0,.234.057c.093.016.19.031.293.043a2.716,2.716,0,0,0,.313.018,1.719,1.719,0,0,0,.291-.023,1.449,1.449,0,0,0,.041-.313,1.893,1.893,0,0,0-.018-.322A1.517,1.517,0,0,0-93.384,1498.721Zm.068.281a1.517,1.517,0,0,0-.068-.281.511.511,0,0,0-.109-.191.1.1,0,0,0-.1-.027.354.354,0,0,0-.132.054,1.434,1.434,0,0,0-.152.111c-.053.044-.1.09-.152.139a1.732,1.732,0,0,0-.145.168q-.073.1-.134.193a1.6,1.6,0,0,0-.1.2.992.992,0,0,0-.061.179,1.688,1.688,0,0,0,.234.057c.093.016.19.031.293.043a2.716,2.716,0,0,0,.313.018,1.719,1.719,0,0,0,.291-.023,1.449,1.449,0,0,0,.041-.313A1.893,1.893,0,0,0-93.316,1499Zm0,0a1.517,1.517,0,0,0-.068-.281.511.511,0,0,0-.109-.191.1.1,0,0,0-.1-.027.354.354,0,0,0-.132.054,1.434,1.434,0,0,0-.152.111c-.053.044-.1.09-.152.139a1.732,1.732,0,0,0-.145.168q-.073.1-.134.193a1.6,1.6,0,0,0-.1.2.992.992,0,0,0-.061.179,1.688,1.688,0,0,0,.234.057c.093.016.19.031.293.043a2.716,2.716,0,0,0,.313.018,1.719,1.719,0,0,0,.291-.023,1.449,1.449,0,0,0,.041-.313A1.893,1.893,0,0,0-93.316,1499Zm0,0a1.517,1.517,0,0,0-.068-.281.511.511,0,0,0-.109-.191.1.1,0,0,0-.1-.027.354.354,0,0,0-.132.054,1.434,1.434,0,0,0-.152.111c-.053.044-.1.09-.152.139a1.732,1.732,0,0,0-.145.168q-.073.1-.134.193a1.6,1.6,0,0,0-.1.2.992.992,0,0,0-.061.179,1.688,1.688,0,0,0,.234.057c.093.016.19.031.293.043a2.716,2.716,0,0,0,.313.018,1.719,1.719,0,0,0,.291-.023,1.449,1.449,0,0,0,.041-.313A1.893,1.893,0,0,0-93.316,1499Zm0,0a1.517,1.517,0,0,0-.068-.281.511.511,0,0,0-.109-.191.1.1,0,0,0-.1-.027.354.354,0,0,0-.132.054,1.434,1.434,0,0,0-.152.111c-.053.044-.1.09-.152.139a1.732,1.732,0,0,0-.145.168q-.073.1-.134.193a1.6,1.6,0,0,0-.1.2.992.992,0,0,0-.061.179,1.688,1.688,0,0,0,.234.057c.093.016.19.031.293.043a2.716,2.716,0,0,0,.313.018,1.719,1.719,0,0,0,.291-.023,1.449,1.449,0,0,0,.041-.313A1.893,1.893,0,0,0-93.316,1499Zm0,0a1.517,1.517,0,0,0-.068-.281.511.511,0,0,0-.109-.191.1.1,0,0,0-.1-.027.354.354,0,0,0-.132.054,1.434,1.434,0,0,0-.152.111c-.053.044-.1.09-.152.139a1.732,1.732,0,0,0-.145.168q-.073.1-.134.193a1.6,1.6,0,0,0-.1.2.992.992,0,0,0-.061.179,1.688,1.688,0,0,0,.234.057c.093.016.19.031.293.043a2.716,2.716,0,0,0,.313.018,1.719,1.719,0,0,0,.291-.023,1.449,1.449,0,0,0,.041-.313A1.893,1.893,0,0,0-93.316,1499Zm0,0a1.517,1.517,0,0,0-.068-.281.511.511,0,0,0-.109-.191.1.1,0,0,0-.1-.027.354.354,0,0,0-.132.054,1.434,1.434,0,0,0-.152.111c-.053.044-.1.09-.152.139a1.732,1.732,0,0,0-.145.168q-.073.1-.134.193a1.6,1.6,0,0,0-.1.2.992.992,0,0,0-.061.179,1.688,1.688,0,0,0,.234.057c.093.016.19.031.293.043a2.716,2.716,0,0,0,.313.018,1.719,1.719,0,0,0,.291-.023,1.449,1.449,0,0,0,.041-.313A1.893,1.893,0,0,0-93.316,1499Z" transform="translate(0 -28.112)" fill="#2253dd"/>
    <path id="Path_3162" data-name="Path 3162" d="M254.94,1462.475a3.783,3.783,0,0,1-.259.327c-.4.408-.807.808-1.208,1.215-.063.064-.1.081-.17,0q-.223-.242-.466-.466c-.076-.07-.06-.107,0-.17.424-.418.844-.841,1.265-1.262.325-.325.652-.267.834.145Z" transform="translate(-337.949)" fill="#2253dd"/>
  </g>
</svg>
