<svg xmlns="http://www.w3.org/2000/svg" width="19.4" height="19.975" viewBox="0 0 19.4 19.975">
  <path id="Path_3057" data-name="Path 3057" d="M19.388.405a.605.605,0,0,0-1.141.4c.929,2.67-.915,4.664-2.321,5.732l-.568-.814a1.326,1.326,0,0,0-.95-.5l-3.188.014a2.162,2.162,0,0,0-1.1.338L.729,12.157a1.01,1.01,0,0,0-.247,1.4l4.269,6.108c.32.455.831.4,1.287.082l9.394-6.588a2.214,2.214,0,0,0,.692-.918l1-3.145a1.328,1.328,0,0,0-.148-1.066l-.346-.5c1.888-1.447,3.848-4,2.76-7.133ZM15.017,9.763a1.611,1.611,0,1,1,.023-2.625c-.272.164-.459.26-.494.275a.6.6,0,1,0,.516,1.094c.194-.092.4-.2.619-.33A1.615,1.615,0,0,1,15.017,9.763Z" transform="translate(-0.3 -0.025)" fill="#f26511"/>
</svg>
