<svg xmlns="http://www.w3.org/2000/svg" width="12.523" height="12.525" viewBox="0 0 12.523 12.525">
  <g id="Group_4947" data-name="Group 4947" transform="translate(98.008 -1461.915)">
    <path id="Path_3161" data-name="Path 3161" d="M-94.091,1497.7a1.269,1.269,0,0,0-.057-.235.426.426,0,0,0-.091-.159.087.087,0,0,0-.079-.023.294.294,0,0,0-.11.046,1.185,1.185,0,0,0-.127.093c-.044.037-.087.075-.127.116a1.441,1.441,0,0,0-.121.14c-.04.053-.078.107-.112.161A1.339,1.339,0,0,0-95,1498a.823.823,0,0,0-.051.15,1.4,1.4,0,0,0,.2.048c.077.014.159.026.245.036a2.263,2.263,0,0,0,.262.015,1.43,1.43,0,0,0,.243-.019,1.211,1.211,0,0,0,.034-.262A1.579,1.579,0,0,0-94.091,1497.7Zm0,0a1.269,1.269,0,0,0-.057-.235.426.426,0,0,0-.091-.159.087.087,0,0,0-.079-.023.294.294,0,0,0-.11.046,1.185,1.185,0,0,0-.127.093c-.044.037-.087.075-.127.116a1.441,1.441,0,0,0-.121.14c-.04.053-.078.107-.112.161A1.339,1.339,0,0,0-95,1498a.823.823,0,0,0-.051.15,1.4,1.4,0,0,0,.2.048c.077.014.159.026.245.036a2.263,2.263,0,0,0,.262.015,1.43,1.43,0,0,0,.243-.019,1.211,1.211,0,0,0,.034-.262A1.579,1.579,0,0,0-94.091,1497.7Zm0,0a1.269,1.269,0,0,0-.057-.235.426.426,0,0,0-.091-.159.087.087,0,0,0-.079-.023.294.294,0,0,0-.11.046,1.185,1.185,0,0,0-.127.093c-.044.037-.087.075-.127.116a1.441,1.441,0,0,0-.121.14c-.04.053-.078.107-.112.161A1.339,1.339,0,0,0-95,1498a.823.823,0,0,0-.051.15,1.4,1.4,0,0,0,.2.048c.077.014.159.026.245.036a2.263,2.263,0,0,0,.262.015,1.43,1.43,0,0,0,.243-.019,1.211,1.211,0,0,0,.034-.262A1.579,1.579,0,0,0-94.091,1497.7Zm0,0a1.269,1.269,0,0,0-.057-.235.426.426,0,0,0-.091-.159.087.087,0,0,0-.079-.023.294.294,0,0,0-.11.046,1.185,1.185,0,0,0-.127.093c-.044.037-.087.075-.127.116a1.441,1.441,0,0,0-.121.14c-.04.053-.078.107-.112.161A1.339,1.339,0,0,0-95,1498a.823.823,0,0,0-.051.15,1.4,1.4,0,0,0,.2.048c.077.014.159.026.245.036a2.263,2.263,0,0,0,.262.015,1.43,1.43,0,0,0,.243-.019,1.211,1.211,0,0,0,.034-.262A1.579,1.579,0,0,0-94.091,1497.7Zm0,0a1.269,1.269,0,0,0-.057-.235.426.426,0,0,0-.091-.159.087.087,0,0,0-.079-.023.294.294,0,0,0-.11.046,1.185,1.185,0,0,0-.127.093c-.044.037-.087.075-.127.116a1.441,1.441,0,0,0-.121.14c-.04.053-.078.107-.112.161A1.339,1.339,0,0,0-95,1498a.823.823,0,0,0-.051.15,1.4,1.4,0,0,0,.2.048c.077.014.159.026.245.036a2.263,2.263,0,0,0,.262.015,1.43,1.43,0,0,0,.243-.019,1.211,1.211,0,0,0,.034-.262A1.579,1.579,0,0,0-94.091,1497.7Zm0,0a1.269,1.269,0,0,0-.057-.235.426.426,0,0,0-.091-.159.087.087,0,0,0-.079-.023.294.294,0,0,0-.11.046,1.185,1.185,0,0,0-.127.093c-.044.037-.087.075-.127.116a1.441,1.441,0,0,0-.121.14c-.04.053-.078.107-.112.161A1.339,1.339,0,0,0-95,1498a.823.823,0,0,0-.051.15,1.4,1.4,0,0,0,.2.048c.077.014.159.026.245.036a2.263,2.263,0,0,0,.262.015,1.43,1.43,0,0,0,.243-.019,1.211,1.211,0,0,0,.034-.262A1.579,1.579,0,0,0-94.091,1497.7Zm0,0a1.269,1.269,0,0,0-.057-.235.426.426,0,0,0-.091-.159.087.087,0,0,0-.079-.023.294.294,0,0,0-.11.046,1.185,1.185,0,0,0-.127.093c-.044.037-.087.075-.127.116a1.441,1.441,0,0,0-.121.14c-.04.053-.078.107-.112.161A1.339,1.339,0,0,0-95,1498a.823.823,0,0,0-.051.15,1.4,1.4,0,0,0,.2.048c.077.014.159.026.245.036a2.263,2.263,0,0,0,.262.015,1.43,1.43,0,0,0,.243-.019,1.211,1.211,0,0,0,.034-.262A1.579,1.579,0,0,0-94.091,1497.7Zm0,0a1.269,1.269,0,0,0-.057-.235.426.426,0,0,0-.091-.159.087.087,0,0,0-.079-.023.294.294,0,0,0-.11.046,1.185,1.185,0,0,0-.127.093c-.044.037-.087.075-.127.116a1.441,1.441,0,0,0-.121.14c-.04.053-.078.107-.112.161A1.339,1.339,0,0,0-95,1498a.823.823,0,0,0-.051.15,1.4,1.4,0,0,0,.2.048c.077.014.159.026.245.036a2.263,2.263,0,0,0,.262.015,1.43,1.43,0,0,0,.243-.019,1.211,1.211,0,0,0,.034-.262A1.579,1.579,0,0,0-94.091,1497.7Zm7.664-4.262q-1.142-1.15-2.291-2.292a.167.167,0,0,0-.124-.047q-1.035.175-2.068.36a.75.75,0,0,0-.441.182q-3.168,3.179-6.341,6.353a1.136,1.136,0,0,0-.262.4.884.884,0,0,0,.264.976q1.454,1.451,2.9,2.906a1.449,1.449,0,0,0,.691.451h.269a1.4,1.4,0,0,0,.685-.438q2.04-2.05,4.087-4.093c.715-.715,1.43-1.429,2.139-2.149a.574.574,0,0,0,.15-.281c.135-.728.26-1.458.383-2.188A.193.193,0,0,0-86.427,1493.435Zm-5.484,6.215c-.028.051-.062.106-.1.167s-.086.123-.136.186a2.186,2.186,0,0,1-.156.174,1.616,1.616,0,0,1-.371.277,1.221,1.221,0,0,1-.438.142,1.067,1.067,0,0,1-.464-.047,1.152,1.152,0,0,1-.455-.3,1.224,1.224,0,0,1-.262-.368,1.253,1.253,0,0,1-.1-.379,1.448,1.448,0,0,1,.009-.37,2.882,2.882,0,0,1,.074-.339c-.083,0-.173,0-.269,0s-.191-.014-.284-.026a2.078,2.078,0,0,1-.264-.052,1.089,1.089,0,0,1-.214-.078l-.319-.281A1.841,1.841,0,0,1-95.6,1498a2.133,2.133,0,0,1,.133-.345,2.434,2.434,0,0,1,.176-.305,1.7,1.7,0,0,1,.2-.245,1.7,1.7,0,0,1,.355-.279,1.179,1.179,0,0,1,.335-.135.667.667,0,0,1,.286-.006.411.411,0,0,1,.207.108,1.094,1.094,0,0,1,.133.167,1.227,1.227,0,0,1,.123.248,1.721,1.721,0,0,1,.085.343,2.31,2.31,0,0,1,.019.451.725.725,0,0,0,.1-.089l.154-.154.284-.284.364-.364a.162.162,0,0,0,.059-.165.434.434,0,0,0-.116-.172l-.872-.872.432-.432.721.72a.582.582,0,0,0,.322.178.43.43,0,0,0,.36-.163l.1-.1,0,0,.031-.031.493-.493-1.069-1.069.432-.432,1.509,1.509-.925.925-.027.027-.117.117a.588.588,0,0,1-.347.188.837.837,0,0,1-.328-.021.748.748,0,0,1,0,.362.721.721,0,0,1-.2.347l-.383.383-.288.288a1.944,1.944,0,0,1-.454.348,2.2,2.2,0,0,1-.378.165q-.05.141-.084.282a1.18,1.18,0,0,0-.035.277.761.761,0,0,0,.045.262.658.658,0,0,0,.159.239.561.561,0,0,0,.442.179.814.814,0,0,0,.511-.276,1.155,1.155,0,0,0,.1-.112q.051-.067.1-.135c.031-.046.058-.09.084-.133s.044-.079.057-.106l.455.333A.757.757,0,0,1-91.911,1499.65Zm.47-1.459a.315.315,0,0,1-.226.1.3.3,0,0,1-.223-.094.3.3,0,0,1-.09-.219.315.315,0,0,1,.1-.226.315.315,0,0,1,.226-.1.294.294,0,0,1,.219.09.3.3,0,0,1,.094.223A.316.316,0,0,1-91.441,1498.19Zm.588-.588a.315.315,0,0,1-.226.1.3.3,0,0,1-.223-.094.3.3,0,0,1-.09-.219.315.315,0,0,1,.1-.226.316.316,0,0,1,.226-.1.293.293,0,0,1,.219.09.3.3,0,0,1,.094.223A.316.316,0,0,1-90.854,1497.6Zm1.041-1.041a.321.321,0,0,1-.227.1.3.3,0,0,1-.224-.093.29.29,0,0,1-.089-.22.321.321,0,0,1,.1-.227.314.314,0,0,1,.223-.1.293.293,0,0,1,.221.09.3.3,0,0,1,.093.224A.315.315,0,0,1-89.813,1496.562Zm1.116-2.6a.543.543,0,0,1-.54-.546.544.544,0,0,1,.546-.541.546.546,0,0,1,.541.546A.545.545,0,0,1-88.7,1493.959Zm-5.451,3.5a.426.426,0,0,0-.091-.159.087.087,0,0,0-.079-.023.294.294,0,0,0-.11.046,1.185,1.185,0,0,0-.127.093c-.044.037-.087.075-.127.116a1.441,1.441,0,0,0-.121.14c-.04.053-.078.107-.112.161A1.339,1.339,0,0,0-95,1498a.823.823,0,0,0-.051.15,1.4,1.4,0,0,0,.2.048c.077.014.159.026.245.036a2.263,2.263,0,0,0,.262.015,1.43,1.43,0,0,0,.243-.019,1.211,1.211,0,0,0,.034-.262,1.579,1.579,0,0,0-.015-.269A1.269,1.269,0,0,0-94.148,1497.462Zm.057.235a1.269,1.269,0,0,0-.057-.235.426.426,0,0,0-.091-.159.087.087,0,0,0-.079-.023.294.294,0,0,0-.11.046,1.185,1.185,0,0,0-.127.093c-.044.037-.087.075-.127.116a1.441,1.441,0,0,0-.121.14c-.04.053-.078.107-.112.161A1.339,1.339,0,0,0-95,1498a.823.823,0,0,0-.051.15,1.4,1.4,0,0,0,.2.048c.077.014.159.026.245.036a2.263,2.263,0,0,0,.262.015,1.43,1.43,0,0,0,.243-.019,1.211,1.211,0,0,0,.034-.262A1.579,1.579,0,0,0-94.091,1497.7Zm0,0a1.269,1.269,0,0,0-.057-.235.426.426,0,0,0-.091-.159.087.087,0,0,0-.079-.023.294.294,0,0,0-.11.046,1.185,1.185,0,0,0-.127.093c-.044.037-.087.075-.127.116a1.441,1.441,0,0,0-.121.14c-.04.053-.078.107-.112.161A1.339,1.339,0,0,0-95,1498a.823.823,0,0,0-.051.15,1.4,1.4,0,0,0,.2.048c.077.014.159.026.245.036a2.263,2.263,0,0,0,.262.015,1.43,1.43,0,0,0,.243-.019,1.211,1.211,0,0,0,.034-.262A1.579,1.579,0,0,0-94.091,1497.7Zm0,0a1.269,1.269,0,0,0-.057-.235.426.426,0,0,0-.091-.159.087.087,0,0,0-.079-.023.294.294,0,0,0-.11.046,1.185,1.185,0,0,0-.127.093c-.044.037-.087.075-.127.116a1.441,1.441,0,0,0-.121.14c-.04.053-.078.107-.112.161A1.339,1.339,0,0,0-95,1498a.823.823,0,0,0-.051.15,1.4,1.4,0,0,0,.2.048c.077.014.159.026.245.036a2.263,2.263,0,0,0,.262.015,1.43,1.43,0,0,0,.243-.019,1.211,1.211,0,0,0,.034-.262A1.579,1.579,0,0,0-94.091,1497.7Zm0,0a1.269,1.269,0,0,0-.057-.235.426.426,0,0,0-.091-.159.087.087,0,0,0-.079-.023.294.294,0,0,0-.11.046,1.185,1.185,0,0,0-.127.093c-.044.037-.087.075-.127.116a1.441,1.441,0,0,0-.121.14c-.04.053-.078.107-.112.161A1.339,1.339,0,0,0-95,1498a.823.823,0,0,0-.051.15,1.4,1.4,0,0,0,.2.048c.077.014.159.026.245.036a2.263,2.263,0,0,0,.262.015,1.43,1.43,0,0,0,.243-.019,1.211,1.211,0,0,0,.034-.262A1.579,1.579,0,0,0-94.091,1497.7Zm0,0a1.269,1.269,0,0,0-.057-.235.426.426,0,0,0-.091-.159.087.087,0,0,0-.079-.023.294.294,0,0,0-.11.046,1.185,1.185,0,0,0-.127.093c-.044.037-.087.075-.127.116a1.441,1.441,0,0,0-.121.14c-.04.053-.078.107-.112.161A1.339,1.339,0,0,0-95,1498a.823.823,0,0,0-.051.15,1.4,1.4,0,0,0,.2.048c.077.014.159.026.245.036a2.263,2.263,0,0,0,.262.015,1.43,1.43,0,0,0,.243-.019,1.211,1.211,0,0,0,.034-.262A1.579,1.579,0,0,0-94.091,1497.7Zm0,0a1.269,1.269,0,0,0-.057-.235.426.426,0,0,0-.091-.159.087.087,0,0,0-.079-.023.294.294,0,0,0-.11.046,1.185,1.185,0,0,0-.127.093c-.044.037-.087.075-.127.116a1.441,1.441,0,0,0-.121.14c-.04.053-.078.107-.112.161A1.339,1.339,0,0,0-95,1498a.823.823,0,0,0-.051.15,1.4,1.4,0,0,0,.2.048c.077.014.159.026.245.036a2.263,2.263,0,0,0,.262.015,1.43,1.43,0,0,0,.243-.019,1.211,1.211,0,0,0,.034-.262A1.579,1.579,0,0,0-94.091,1497.7Z" transform="translate(0 -28.289)" fill="#2fb4bd"/>
    <path id="Path_3162" data-name="Path 3162" d="M254.585,1462.383a3.165,3.165,0,0,1-.216.273c-.334.34-.674.675-1.009,1.014-.053.053-.084.067-.142,0q-.186-.2-.389-.389c-.063-.058-.05-.089,0-.142.354-.349.7-.7,1.056-1.053.271-.271.544-.223.7.121Z" transform="translate(-340.07)" fill="#2fb4bd"/>
  </g>
</svg>
