<svg xmlns="http://www.w3.org/2000/svg" width="11.636" height="20.398" viewBox="0 0 11.636 20.398">
  <g id="Group_5688" data-name="Group 5688" transform="matrix(0.966, 0.259, -0.259, 0.966, -1391.773, -920.101)">
    <path id="Path_671" data-name="Path 671" d="M1589.019,537.372a4.756,4.756,0,0,1-.217-9.4,1.971,1.971,0,0,0,.244-.071h1.106l.191.067a.771.771,0,0,0,.128.071,3.29,3.29,0,0,1,1.606,1.167,5.692,5.692,0,0,1,1.081,4.16,5.35,5.35,0,0,1-.744,2.254,4.183,4.183,0,0,1-.962,1.118,3.751,3.751,0,0,1-1.225.623v.012Z" transform="translate(0)" fill="#fe3e3a"/>
    <path id="Path_672" data-name="Path 672" d="M1668.347,737.89q0,3.9,0,7.8a.739.739,0,1,1-1.14,0q-.009-3.9,0-7.8Z" transform="translate(-78.156 -199.312)" fill="#abd4de"/>
    <path id="Path_673" data-name="Path 673" d="M1690.454,538.6a3.751,3.751,0,0,0,1.225-.623,4.187,4.187,0,0,0,.961-1.118,5.35,5.35,0,0,0,.744-2.254,5.694,5.694,0,0,0-1.081-4.16,3.291,3.291,0,0,0-1.606-1.167.767.767,0,0,1-.128-.071,4.328,4.328,0,0,1,2.456,1.162,4.762,4.762,0,0,1-2.215,8.183A3.316,3.316,0,0,1,1690.454,538.6Z" transform="translate(-100.226 -1.242)" fill="#cb3245"/>
    <path id="Path_674" data-name="Path 674" d="M1667.856,715.325h-1.145c0-.327,0-.655-.008-.982,0-.075-.013-.149-.02-.224l1.211,0c-.01.207-.024.414-.031.621S1667.858,715.129,1667.856,715.325Z" transform="translate(-77.665 -176.748)" fill="#92b6bf"/>
  </g>
</svg>
