<svg xmlns="http://www.w3.org/2000/svg" width="36.582" height="31.532" viewBox="0 0 36.582 31.532">
  <g id="Group_2781" data-name="Group 2781" transform="translate(-564 -268.618)">
    <path id="Path_2965" data-name="Path 2965" d="M564,281.25c1-1.5,2.018-2.99,2.978-4.516a4.315,4.315,0,0,1,1.874-1.65c4.313-2.081,8.6-4.21,12.9-6.328a1.159,1.159,0,0,1,1.086-.007q6.823,3.227,13.647,6.452a1.6,1.6,0,0,1,.619.557c1.1,1.695,2.172,3.4,3.252,5.109a.98.98,0,0,1-.389,1.55q-6.435,3.688-12.875,7.369a.976.976,0,0,1-1.412-.27c-.693-.862-1.379-1.73-2.069-2.594-.108-.135-.218-.268-.368-.452v11.166c.276-.148.524-.278.769-.412q5.787-3.176,11.574-6.35a1.635,1.635,0,0,1,.455-.189.916.916,0,0,1,1.06.579.932.932,0,0,1-.46,1.182c-1.17.653-2.346,1.293-3.521,1.937q-5.066,2.78-10.128,5.565a1.328,1.328,0,0,1-1.4,0q-6.738-3.581-13.5-7.126a1.141,1.141,0,0,1-.683-1.133c.015-2.441,0-4.881.013-7.322a.515.515,0,0,0-.308-.526c-.759-.416-1.517-.838-2.252-1.294a7.418,7.418,0,0,1-.863-.729Zm6.452-4.827c.133.077.213.128.3.172q5.628,2.969,11.254,5.942a.53.53,0,0,0,.577-.015q4.113-2.267,8.235-4.519l3.306-1.814c-.133-.07-.222-.121-.314-.165q-5.625-2.656-11.249-5.316a.527.527,0,0,0-.522.018q-3.342,1.656-6.692,3.3Zm10.87,21.238V286.479c-.8,1.007-1.567,1.964-2.329,2.922a1.049,1.049,0,0,1-1.624.32l-7.722-4.418c-.107-.062-.217-.12-.354-.2,0,1.984.006,3.912-.007,5.84a.514.514,0,0,0,.321.543q4.473,2.338,8.932,4.7Zm14.554-20.272c-.082.042-.135.067-.187.1q-5.862,3.211-11.726,6.42c-.2.11-.208.181-.064.359q1.326,1.634,2.623,3.292c.167.215.279.227.505.1q3.266-1.887,6.544-3.752l4.51-2.579c.122-.07.257-.107.129-.306-.745-1.158-1.478-2.323-2.217-3.484A1.253,1.253,0,0,0,595.875,277.389Zm-15.055,6.683c-.1-.062-.177-.123-.266-.17q-5.818-3.072-11.635-6.147c-.211-.112-.3-.062-.419.117q-1.019,1.547-2.059,3.08c-.126.185-.13.264.087.388q5.547,3.16,11.082,6.342c.173.1.26.1.4-.071.879-1.124,1.774-2.235,2.664-3.35Z" fill="#888"/>
    <path id="Path_2966" data-name="Path 2966" d="M890.765,461.44a1.1,1.1,0,0,1,2.2-.008,1.1,1.1,0,1,1-2.2.008Z" transform="translate(-295.643 -173.464)" fill="#888"/>
  </g>
</svg>
