<svg xmlns="http://www.w3.org/2000/svg" width="222.525" height="222.325" viewBox="0 0 222.525 222.325">
  <g id="Group_1247" data-name="Group 1247" transform="matrix(0.875, -0.485, 0.485, 0.875, -22.004, 76.916)" opacity="0.36">
    <g id="Group_1199" data-name="Group 1199" transform="translate(154.062 160.786)">
      <g id="Group_1198" data-name="Group 1198" transform="translate(0 0)">
        <path id="Path_1798" data-name="Path 1798" d="M12.155,4.86A5.1,5.1,0,0,0,9.784,1.132a5.106,5.106,0,0,0-4.269-1A7.088,7.088,0,0,0,1.632,3.186,7.146,7.146,0,0,0,.016,7.816,5.073,5.073,0,0,0,2.37,11.551a5.125,5.125,0,0,0,4.271,1.006A7.062,7.062,0,0,0,10.533,9.5,7.134,7.134,0,0,0,12.155,4.86ZM4.295,8.868c-.622-.443-.68-.824-.669-1.073A5.061,5.061,0,0,1,4.786,5.431c.983-1.382,1.587-1.769,1.859-1.878a1.213,1.213,0,0,1,1.234.277c.6.43.661.816.651,1.069A5.017,5.017,0,0,1,7.378,7.26c-.987,1.387-1.59,1.771-1.862,1.876A1.211,1.211,0,0,1,4.295,8.868Z" transform="translate(8.649 15.413)" fill="#ffd766"/>
        <path id="Path_1799" data-name="Path 1799" d="M6.656,12.555A7.084,7.084,0,0,0,10.541,9.5a7.149,7.149,0,0,0,1.616-4.63A5.071,5.071,0,0,0,9.8,1.135,5.125,5.125,0,0,0,5.532.128,7.064,7.064,0,0,0,1.64,3.181,7.135,7.135,0,0,0,.017,7.825a5.106,5.106,0,0,0,2.372,3.729A5.1,5.1,0,0,0,6.656,12.555Zm0-9.008a1.215,1.215,0,0,1,1.235.277c.6.429.66.816.65,1.068A5.022,5.022,0,0,1,7.387,7.255C6.4,8.642,5.8,9.026,5.525,9.131A1.209,1.209,0,0,1,4.3,8.863c-.622-.443-.68-.824-.67-1.073A5.072,5.072,0,0,1,4.794,5.426C5.777,4.044,6.381,3.656,6.653,3.548Z" transform="translate(1.436)" fill="#ffd766"/>
        <path id="Path_1800" data-name="Path 1800" d="M22.273,2.08a.811.811,0,0,0-.337-.721L20.235.15A.81.81,0,0,0,19.4.088L.443,9.711a.81.81,0,0,0-.1,1.382l1.7,1.21a.81.81,0,0,0,.836.062L21.832,2.742A.809.809,0,0,0,22.273,2.08Z" transform="translate(0 7.821)" fill="#ffd766"/>
      </g>
    </g>
    <g id="Group_1210" data-name="Group 1210" transform="translate(94.834 0)">
      <g id="Group_1208" data-name="Group 1208" transform="translate(0 0)">
        <g id="Group_1206" data-name="Group 1206">
          <g id="Group_1200" data-name="Group 1200" transform="translate(0 2.51)">
            <path id="Path_1801" data-name="Path 1801" d="M15.766,4.353C12.045,1.743,7.933.657,4.788,1.164L3.128,0,.964,2.812c-2.54,3.621.11,9.859,5.918,13.932s12.575,4.441,15.115.82l2.164-2.812L22.5,13.589C21.908,10.46,19.486,6.963,15.766,4.353Z" fill="#f7ac41"/>
          </g>
          <g id="Group_1201" data-name="Group 1201" transform="translate(2.176 0)">
            <path id="Path_1802" data-name="Path 1802" d="M16.08,3.313C21.888,7.387,24.537,13.624,22,17.245S12.69,20.5,6.882,16.425-1.575,6.114.964,2.493,10.271-.761,16.08,3.313Z" fill="#ffd766"/>
          </g>
          <g id="Group_1203" data-name="Group 1203" transform="translate(4.064 1.093)">
            <g id="Group_1202" data-name="Group 1202">
              <path id="Path_1803" data-name="Path 1803" d="M19.566,13.612a4.069,4.069,0,0,1-.559,1.151c-1.023,1.459-2.945,2.141-5.412,1.923a15.909,15.909,0,0,1-7.477-2.957A15.9,15.9,0,0,1,.793,7.705C-.252,5.461-.265,3.422.759,1.963S3.7-.179,6.17.04A15.907,15.907,0,0,1,13.646,3h0A15.9,15.9,0,0,1,18.972,9.02,6.485,6.485,0,0,1,19.566,13.612ZM.766,3.285a5.922,5.922,0,0,0,.563,4.17,15.305,15.305,0,0,0,5.129,5.788c4.764,3.341,10.176,3.87,12.063,1.179s-.452-7.6-5.216-10.941S3.131-.389,1.243,2.3A3.449,3.449,0,0,0,.766,3.285Z" fill="#f7ac41"/>
            </g>
          </g>
          <g id="Group_1205" data-name="Group 1205" transform="translate(7.918 4.685)">
            <g id="Group_1204" data-name="Group 1204">
              <path id="Path_1804" data-name="Path 1804" d="M10.924,8.35,9.574,7.4A2.722,2.722,0,0,1,7.967,8.444l-.735-.856a2.509,2.509,0,0,0,1.534-.964,1.437,1.437,0,0,0-.517-2.049,2.122,2.122,0,0,0-2.344-.042A3.015,3.015,0,0,1,2.5,4.478,2.483,2.483,0,0,1,1.349,1.535L0,.589.413,0l1.3.909A2.471,2.471,0,0,1,3.042,0l.716.856a2.254,2.254,0,0,0-1.294.878,1.259,1.259,0,0,0,.443,1.813c.7.487,1.289.38,2.35-.109a3.12,3.12,0,0,1,3.478.243A2.66,2.66,0,0,1,9.954,6.777l1.39.974Z" fill="#f7ac41"/>
            </g>
          </g>
        </g>
        <g id="Group_1207" data-name="Group 1207" transform="translate(5.259 2.252)">
          <path id="Path_1805" data-name="Path 1805" d="M2.761,8.911A.452.452,0,0,1,2.4,8.729c-.089-.12-2.191-2.963-2.381-5A4.512,4.512,0,0,1,1.543.105.451.451,0,0,1,2.123.8,3.658,3.658,0,0,0,.916,3.642C1.083,5.434,3.1,8.162,3.123,8.19a.452.452,0,0,1-.362.721Z" fill="#fff"/>
        </g>
      </g>
      <g id="Group_1209" data-name="Group 1209" transform="translate(1.262 19.331)">
        <path id="Path_1806" data-name="Path 1806" d="M14.694,6.923c-2.773-.464-5.538-.52-8.141-1.7a12.218,12.218,0,0,1-3-1.951A4.6,4.6,0,0,1,1.662.62C1.5-.466-.149,0,.011,1.076a5.294,5.294,0,0,0,1.875,3A14.6,14.6,0,0,0,5.177,6.452,16.133,16.133,0,0,0,9.262,7.9c1.644.327,3.325.4,4.976.679C15.317,8.755,15.781,7.1,14.694,6.923Z" fill="#f7ac41"/>
      </g>
    </g>
    <g id="Group_1220" data-name="Group 1220" transform="translate(125.865 1.854)">
      <g id="Group_1219" data-name="Group 1219" transform="translate(0 0)">
        <g id="Group_1217" data-name="Group 1217" transform="translate(0 0)">
          <g id="Group_1211" data-name="Group 1211" transform="translate(2.773 2.311)">
            <path id="Path_1807" data-name="Path 1807" d="M26.264,26.664c5.5-5.254,8.619-11.648,8.813-16.972l2.451-2.343L33.619,2.881C28.506-2.468,17.407-.155,8.828,8.046S-2.561,27.231,2.552,32.58L6.46,37.047,8.912,34.7C14.239,34.75,20.768,31.918,26.264,26.664Z" fill="#f7ac41"/>
          </g>
          <g id="Group_1212" data-name="Group 1212">
            <ellipse id="Ellipse_25" data-name="Ellipse 25" cx="21.489" cy="13.397" rx="21.489" ry="13.397" transform="matrix(0.723, -0.691, 0.691, 0.723, 0, 29.699)" fill="#ffd766"/>
          </g>
          <g id="Group_1214" data-name="Group 1214" transform="translate(9.892 9.996)">
            <g id="Group_1213" data-name="Group 1213">
              <path id="Path_1808" data-name="Path 1808" d="M3.712,29.325a6.792,6.792,0,0,1-1.705-1.292C-.053,25.877-.547,22.5.616,18.527a26.615,26.615,0,0,1,7.291-11.3A26.611,26.611,0,0,1,19.527.449C23.55-.534,26.9.11,28.96,2.265s2.554,5.53,1.391,9.506a26.618,26.618,0,0,1-7.29,11.3h0A26.608,26.608,0,0,1,11.44,29.848,10.851,10.851,0,0,1,3.712,29.325ZM26.788,1.847a9.9,9.9,0,0,0-7.026-.436A25.607,25.607,0,0,0,8.592,7.939c-7.037,6.727-9.67,15.433-5.869,19.409s12.617,1.737,19.653-4.99S32.045,6.925,28.245,2.949A5.788,5.788,0,0,0,26.788,1.847Z" fill="#f7ac41"/>
            </g>
          </g>
          <g id="Group_1216" data-name="Group 1216" transform="translate(17.905 16.617)">
            <g id="Group_1215" data-name="Group 1215">
              <path id="Path_1809" data-name="Path 1809" d="M0,15.392l1.993-1.906A4.552,4.552,0,0,1,.81,10.51l1.645-.927a4.2,4.2,0,0,0,1.082,2.831,2.4,2.4,0,0,0,3.53-.18C8.152,11.2,8.3,10.008,7.9,8.4c-.579-2.185-.515-3.937,1.2-5.578C10.74,1.259,12.775.9,14.3,1.905L16.3,0l.831.869L15.215,2.7a4.127,4.127,0,0,1,1.052,2.484l-1.638.895a3.762,3.762,0,0,0-1.018-2.409,2.105,2.105,0,0,0-3.119.136C9.466,4.786,9.449,5.8,9.9,7.7a5.22,5.22,0,0,1-1.534,5.627c-1.559,1.49-3.757,2.115-5.474.991L.845,16.276Z" fill="#f7ac41"/>
            </g>
          </g>
        </g>
        <g id="Group_1218" data-name="Group 1218" transform="translate(24.491 12.018)">
          <path id="Path_1810" data-name="Path 1810" d="M.015,2.846A.754.754,0,0,1,.431,2.31C.657,2.2,6.006-.32,9.418.034a7.55,7.55,0,0,1,5.443,3.685.756.756,0,0,1-1.325.727A6.115,6.115,0,0,0,9.261,1.537C6.268,1.227,1.132,3.65,1.08,3.675A.755.755,0,0,1,.015,2.846Z" fill="#fff"/>
        </g>
      </g>
    </g>
    <rect id="Rectangle_1406" data-name="Rectangle 1406" width="14.467" height="67.128" transform="translate(42.892 122.9)" fill="#96908c"/>
    <path id="Path_1811" data-name="Path 1811" d="M28.935,0h0A29.019,29.019,0,0,0,0,28.935V88.42a3.8,3.8,0,0,0,3.8,3.8h98.573V0Z" transform="translate(0 45.387)" fill="#f26511"/>
    <path id="Path_1812" data-name="Path 1812" d="M20.306,0C8.313,3.578,0,14.856,0,28.122v64.1H32.15V0Z" transform="translate(70.222 45.387)" fill="#fff"/>
    <path id="Path_1813" data-name="Path 1813" d="M28.935,0h0A29.02,29.02,0,0,0,0,28.935V92.219H57.87V28.935A29.019,29.019,0,0,0,28.935,0Z" transform="translate(73.437 45.387)" fill="#f50"/>
    <path id="Path_1814" data-name="Path 1814" d="M56.231,23.689h0c15.914,0,25.081-3.345,20.37-7.433L57.87,0H0L18.732,16.256C27.074,22.5,40.317,23.689,56.231,23.689Z" transform="translate(73.437 137.606)" fill="#f26511"/>
    <path id="Path_1815" data-name="Path 1815" d="M13.2,0,0,10.322v9.983H13.2V67.363h4.566V0Z" transform="translate(32.232 14.996)" fill="#c64200"/>
    <circle id="Ellipse_26" data-name="Ellipse 26" cx="9.644" cy="9.644" r="9.644" transform="translate(36.969 97.292) rotate(-83.02)" fill="#ffe164"/>
    <path id="Path_1816" data-name="Path 1816" d="M5.924,2.962A2.962,2.962,0,1,1,2.962,0,2.962,2.962,0,0,1,5.924,2.962Z" transform="translate(44.752 85.929)" fill="#fff98a"/>
    <g id="Group_1221" data-name="Group 1221" transform="translate(73.437 50.908)">
      <path id="Path_1817" data-name="Path 1817" d="M0,23.413V86.7H57.87L11.988,0A28.947,28.947,0,0,0,0,23.413Z" fill="#9e3500"/>
    </g>
    <path id="Path_1818" data-name="Path 1818" d="M0,1.914,14.467,4.659V0H0Z" transform="translate(42.892 137.606)" fill="#434a59"/>
    <g id="Group_1222" data-name="Group 1222" transform="translate(6.372 51.783)">
      <path id="Path_1819" data-name="Path 1819" d="M1.41,16.875A1.41,1.41,0,0,1,.038,15.141C2.212,5.961,14.256.362,14.767.128A1.408,1.408,0,1,1,15.938,2.69c-.152.07-11.307,5.28-13.159,13.1A1.409,1.409,0,0,1,1.41,16.875Z" fill="#fff"/>
    </g>
    <g id="Group_1223" data-name="Group 1223" transform="translate(5.579 80.951)">
      <path id="Path_1820" data-name="Path 1820" d="M1.408,30.119A1.409,1.409,0,0,1,0,28.71V1.409a1.408,1.408,0,1,1,2.817,0v27.3A1.409,1.409,0,0,1,1.408,30.119Z" fill="#fff"/>
    </g>
    <g id="Group_1227" data-name="Group 1227" transform="translate(100.902 50.766)">
      <path id="Path_1821" data-name="Path 1821" d="M81.593,48.756,5.906,57.528,0,20.745,75.921,0Z" fill="#ffe164"/>
      <g id="Group_1224" data-name="Group 1224" transform="translate(4.435 5.626)">
        <path id="Path_1822" data-name="Path 1822" d="M32.471,36.242a.6.6,0,0,1-.3-.078L.3,18.087A.6.6,0,0,1,.9,17.042L32.355,34.886,64.624.192a.6.6,0,0,1,.879.817L32.911,36.051A.6.6,0,0,1,32.471,36.242Z" fill="#f2a25c"/>
      </g>
      <g id="Group_1225" data-name="Group 1225" transform="translate(7.858 31.694)">
        <path id="Path_1823" data-name="Path 1823" d="M.6,22.462a.6.6,0,0,1-.516-.907L12.712.294a.6.6,0,0,1,1.033.613L1.117,22.168A.6.6,0,0,1,.6,22.462Z" fill="#f2a25c"/>
      </g>
      <g id="Group_1226" data-name="Group 1226" transform="translate(50.396 25.519)">
        <path id="Path_1824" data-name="Path 1824" d="M25.434,19.824a.6.6,0,0,1-.36-.12L.24,1.081A.6.6,0,1,1,.961.12L25.795,18.743a.6.6,0,0,1-.36,1.081Z" fill="#f2a25c"/>
      </g>
    </g>
    <g id="Group_1246" data-name="Group 1246" transform="translate(113.016 114.403)">
      <g id="Group_1245" data-name="Group 1245">
        <g id="Group_1228" data-name="Group 1228">
          <path id="Path_1825" data-name="Path 1825" d="M6.32.083c20.073-.877,40.864,5.277,57.727,16-2.512,9.115-3.769,13.673-6.277,22.792C40.874,28.2,20.074,22.107,0,23.039,2.527,13.855,3.791,9.264,6.32.083Z" fill="#98d17d"/>
        </g>
        <g id="Group_1230" data-name="Group 1230" transform="translate(3.071 2.31)">
          <g id="Group_1229" data-name="Group 1229">
            <path id="Path_1826" data-name="Path 1826" d="M5.223.007A.3.3,0,0,1,5.289,0,122.6,122.6,0,0,1,58.074,14.614a.375.375,0,0,1,.15.18.355.355,0,0,1,.019.229c-1.959,7.107-2.938,10.661-4.894,17.77a.2.2,0,0,1-.315.12A122.631,122.631,0,0,0,.217,18.419a.218.218,0,0,1-.177-.077.21.21,0,0,1-.03-.188C1.979,11,2.965,7.421,4.935.267A.39.39,0,0,1,5.223.007ZM57.686,15A122.726,122.726,0,0,0,5.423.532C3.51,7.473,2.555,10.943.643,17.885A122.754,122.754,0,0,1,52.937,32.24C54.836,25.342,55.785,21.894,57.686,15Z" fill="#568966"/>
          </g>
        </g>
        <g id="Group_1232" data-name="Group 1232" transform="translate(3.36 16.623)">
          <g id="Group_1231" data-name="Group 1231">
            <path id="Path_1827" data-name="Path 1827" d="M4.032,3.9A2.939,2.939,0,0,0,1.057,0C.634,1.535.422,2.3,0,3.839,1.615,3.833,2.421,3.846,4.032,3.9Z" fill="#568966"/>
          </g>
        </g>
        <g id="Group_1234" data-name="Group 1234" transform="translate(7.229 2.575)">
          <g id="Group_1233" data-name="Group 1233">
            <path id="Path_1828" data-name="Path 1828" d="M5.089.074A5.489,5.489,0,0,1,0,3.839C.423,2.3.635,1.536,1.057,0,2.672,0,3.479.013,5.089.074Z" fill="#568966"/>
          </g>
        </g>
        <g id="Group_1236" data-name="Group 1236" transform="translate(52.653 30.627)">
          <g id="Group_1235" data-name="Group 1235">
            <path id="Path_1829" data-name="Path 1829" d="M0,2.321A2.948,2.948,0,0,1,4.574.516C4.155,2.042,3.944,2.8,3.525,4.331,2.129,3.5,1.424,3.1,0,2.321Z" fill="#568966"/>
          </g>
        </g>
        <g id="Group_1238" data-name="Group 1238" transform="translate(57.399 15.17)">
          <g id="Group_1237" data-name="Group 1237">
            <path id="Path_1830" data-name="Path 1830" d="M.153,0A5.492,5.492,0,0,0,2.622,5.832L3.673,2.018C2.28,1.182,1.575.778.153,0Z" fill="#568966"/>
          </g>
        </g>
        <g id="Group_1239" data-name="Group 1239" transform="translate(25.169 7.348)">
          <path id="Path_1831" data-name="Path 1831" d="M.277,6.029A8.15,8.15,0,0,1,10.091.271a8.162,8.162,0,0,1,5.482,9.973,7.646,7.646,0,0,1-9.658,5.163A7.624,7.624,0,0,1,.277,6.029Z" fill="#568966"/>
        </g>
        <g id="Group_1244" data-name="Group 1244" transform="translate(9.8 9.292)">
          <g id="Group_1241" data-name="Group 1241" transform="translate(19.673 0)">
            <g id="Group_1240" data-name="Group 1240">
              <path id="Path_1832" data-name="Path 1832" d="M5.875.283C5.7.849,5.616,1.131,5.443,1.7A4.55,4.55,0,0,1,7.492,3.035c-.254.328-.382.492-.636.82A4.156,4.156,0,0,0,4.933,2.58a1.6,1.6,0,0,0-2.168.85c-.236.77.2,1.418,1.154,2.16C5.232,6.609,5.965,7.563,5.593,8.779a2.423,2.423,0,0,1-2.9,1.548c-.172.565-.258.848-.43,1.413-.365-.112-.547-.166-.912-.274.165-.544.248-.815.415-1.358A4.335,4.335,0,0,1,0,9.071l.651-.822A3.933,3.933,0,0,0,2.363,9.263C3.5,9.6,4.115,9.1,4.286,8.539c.222-.727-.208-1.275-1.333-2.155-1.329-1.04-1.884-1.97-1.5-3.217A2.632,2.632,0,0,1,4.506,1.456L4.951,0C5.321.112,5.506.168,5.875.283Z" fill="#cddd9b"/>
            </g>
          </g>
          <g id="Group_1242" data-name="Group 1242" transform="translate(42.368 12.295)">
            <path id="Path_1833" data-name="Path 1833" d="M.061.961A1.247,1.247,0,0,1,1.925.174a2.1,2.1,0,0,1,1.009,2.3,1.229,1.229,0,0,1-1.854.764A2.072,2.072,0,0,1,.061.961Z" fill="#fff"/>
          </g>
          <g id="Group_1243" data-name="Group 1243" transform="translate(0 0.828)">
            <path id="Path_1834" data-name="Path 1834" d="M3.279,1.639A1.245,1.245,0,0,0,2.092,0,2.1,2.1,0,0,0,.055,1.468,1.226,1.226,0,0,0,1.244,3.08,2.072,2.072,0,0,0,3.279,1.639Z" fill="#ffe164"/>
          </g>
        </g>
      </g>
    </g>
  </g>
</svg>
