<svg xmlns="http://www.w3.org/2000/svg" width="31.955" height="31.954" viewBox="0 0 31.955 31.954">
  <g id="Group_2870" data-name="Group 2870" transform="translate(-689.125 -93.625)">
    <path id="Path_3011" data-name="Path 3011" d="M701.818,93.75a4.008,4.008,0,0,1,1.726,1.016,3.338,3.338,0,0,1,.879,1.834.422.422,0,0,0,.2.262,5.3,5.3,0,0,1,1.941,1.775.444.444,0,0,0,.33.137c1.764.008,3.529.006,5.293.006.573,0,.711.138.711.709q0,1.733,0,3.467c0,.379-.147.567-.444.589a.462.462,0,0,1-.534-.522c0-1.011,0-2.022,0-3.033,0-.12.036-.238-.172-.236-1.547.008-3.094,0-4.579,0,.035.595.08,1.176.1,1.758.013.382-.155.544-.542.544q-5.649,0-11.3,0c-.4,0-.558-.141-.549-.535.013-.584.063-1.167.1-1.768H692.3c-.609,0-1.218.008-1.826,0-.2,0-.267.039-.258.25.018.433.005.867.005,1.3q0,11.406-.007,22.813c0,.3.068.366.366.366q10.447-.014,20.893,0c.3,0,.432-.049.387-.376a.537.537,0,0,1,.086-.406c.118-.114.346-.242.464-.2a.7.7,0,0,1,.4.431,4.932,4.932,0,0,1,.012,1.111.416.416,0,0,1-.428.405c-.082.006-.165,0-.248,0q-11.112,0-22.224.006a.843.843,0,0,1-.678-.253V99.074a.7.7,0,0,1,.657-.3c1.772.007,3.544,0,5.316.008a.434.434,0,0,0,.421-.224,4.935,4.935,0,0,1,1.846-1.691.488.488,0,0,0,.228-.314,2.949,2.949,0,0,1,1.17-2.061,10.671,10.671,0,0,1,1.383-.742Zm-.774,7.339h1.362c1.186,0,2.373-.006,3.559.005.223,0,.3-.063.256-.278-.014-.07-.007-.145-.02-.215a3.828,3.828,0,0,0-2.357-2.989.634.634,0,0,1-.437-.656,2.394,2.394,0,0,0-4.771-.056.769.769,0,0,1-.5.752,3.842,3.842,0,0,0-2.28,3.15c-.027.237.031.3.27.294C697.763,101.084,699.4,101.089,701.044,101.089Z" fill="#888" stroke="#707070" stroke-width="0.25"/>
    <path id="Path_3012" data-name="Path 3012" d="M868.792,231.254c0,1.352-.006,2.7,0,4.055a.645.645,0,0,1-.384.638q-4.244,2.256-8.481,4.524a.654.654,0,0,1-.741-.026q-4.251-2.692-8.516-5.364a.539.539,0,0,1-.28-.506q0-3.761,0-7.522a.594.594,0,0,1,.344-.57c2.871-1.539,5.739-3.085,8.618-4.609a.69.69,0,0,1,.534.079c1.72.922,3.432,1.86,5.146,2.794,1.11.6,2.216,1.214,3.331,1.808a.707.707,0,0,1,.429.707C868.783,228.592,868.792,229.923,868.792,231.254Zm-17.454-3.485c-.007.094-.013.143-.013.192,0,2.052,0,4.1-.005,6.156a.349.349,0,0,0,.2.335q3.651,2.306,7.3,4.619c.057.036.12.065.209.112v-.307c0-2.155,0-4.311.006-6.466a.445.445,0,0,0-.268-.452q-3.322-1.862-6.634-3.739Zm16.479.187c-.675.36-1.3.688-1.917,1.033a.358.358,0,0,0-.127.269c-.01.783-.009,1.567,0,2.351a.565.565,0,0,1-.313.554c-.669.36-1.332.732-2,1.088a.486.486,0,0,1-.769-.42c-.021-.246-.006-.495-.006-.742,0-.435,0-.87,0-1.347-.819.445-1.581.867-2.352,1.272a.428.428,0,0,0-.273.443c.011,2.165.007,4.331.007,6.5v.285a1.3,1.3,0,0,0,.139-.05q3.725-1.951,7.445-3.913a.447.447,0,0,0,.165-.34c.011-1.351.007-2.7.007-4.052Zm-15.946-.988c.064.046.095.073.13.092q3.7,2.093,7.405,4.178a.429.429,0,0,0,.35-.008c.581-.307,1.153-.632,1.727-.953.21-.117.419-.235.631-.355-.03-.041-.034-.052-.042-.056q-3.8-2.078-7.6-4.15a.37.37,0,0,0-.3.016C853.412,226.134,852.655,226.545,851.871,226.967Zm15.458.11c-.117-.068-.2-.121-.292-.169-2.23-1.211-4.473-2.4-6.681-3.649a1.253,1.253,0,0,0-1.57,0,5.529,5.529,0,0,1-.813.437c-.119.062-.239.123-.4.206l1.437.792q3.051,1.677,6.1,3.35a.428.428,0,0,0,.326.057C866.066,227.778,866.68,227.433,867.328,227.078Zm-11.943-1.969c.051.031.094.061.139.085,2.474,1.341,4.94,2.7,7.431,4.009a1.073,1.073,0,0,1,.709,1.19c-.053.522-.011,1.055-.011,1.617.347-.186.654-.332.938-.514a.471.471,0,0,0,.194-.326c.019-.608,0-1.218.014-1.826a.432.432,0,0,0-.269-.452c-2.356-1.284-4.7-2.58-7.057-3.871-.323-.177-.656-.481-.979-.475-.339.006-.673.313-1.009.49A.961.961,0,0,0,855.386,225.109Z" transform="translate(-147.844 -117.521)" fill="#888" stroke="#707070" stroke-width="0.25"/>
    <path id="Path_3013" data-name="Path 3013" d="M727.769,303.7c0,.567,0,1.133,0,1.7,0,.35-.159.508-.51.509q-1.607.006-3.215,0c-.334,0-.5-.154-.5-.489q-.011-1.746,0-3.493c0-.33.168-.478.508-.479q1.592-.006,3.184,0c.38,0,.528.159.53.552C727.772,302.565,727.77,303.132,727.769,303.7Zm-.975,0c0-.35-.008-.7,0-1.049.005-.166-.034-.233-.217-.229-.617.011-1.234.01-1.851,0-.179,0-.227.056-.224.229q.013,1.034,0,2.067c0,.173.046.233.225.23.617-.009,1.234-.011,1.851,0,.185,0,.221-.067.216-.231C726.787,304.373,726.794,304.034,726.794,303.694Z" transform="translate(-31.46 -190.549)" fill="#888" stroke="#707070" stroke-width="0.25"/>
    <path id="Path_3014" data-name="Path 3014" d="M727.763,225.73c0,.556,0,1.113,0,1.669,0,.393-.148.551-.529.553q-1.592.007-3.184,0c-.354,0-.509-.153-.511-.509q-.01-1.716,0-3.431c0-.372.161-.521.53-.522q1.592,0,3.184,0c.349,0,.507.159.51.51C727.766,224.576,727.762,225.153,727.763,225.73Zm-.975-.075c0-.34-.008-.68,0-1.019.006-.168-.033-.232-.216-.228q-.926.017-1.853,0c-.178,0-.226.053-.224.226q.014,1.034,0,2.069c0,.181.035.253.236.249q.911-.02,1.822,0c.2,0,.241-.066.235-.248C726.779,226.355,726.787,226,726.787,225.655Z" transform="translate(-31.453 -119.027)" fill="#888" stroke="#707070" stroke-width="0.25"/>
    <path id="Path_3015" data-name="Path 3015" d="M727.762,382.126c0,.567,0,1.135,0,1.7,0,.365-.164.531-.527.533q-1.578.007-3.157,0c-.368,0-.537-.158-.539-.521q-.01-1.718,0-3.435c0-.359.149-.516.508-.52q1.594-.015,3.188,0c.373,0,.527.185.529.57C727.765,381.012,727.763,381.569,727.762,382.126Zm-.975.042c0-.361-.006-.722,0-1.083,0-.159-.02-.243-.214-.239q-.928.018-1.857,0c-.186,0-.222.068-.221.235q.011,1.037,0,2.073c0,.166.033.236.219.233q.928-.017,1.857,0c.184,0,.223-.06.217-.229C726.779,382.828,726.787,382.5,726.787,382.168Z" transform="translate(-31.453 -262.508)" fill="#888" stroke="#707070" stroke-width="0.25"/>
    <path id="Path_3016" data-name="Path 3016" d="M789.364,244.433q1.654,0,3.308,0c.4,0,.593.149.6.455s-.219.518-.6.518q-3.323.006-6.646-.005a.657.657,0,0,1-.466-.171.573.573,0,0,1-.079-.5.606.606,0,0,1,.447-.282C787.076,244.423,788.22,244.433,789.364,244.433Z" transform="translate(-88.265 -138.242)" fill="#888" stroke="#707070" stroke-width="0.25"/>
    <path id="Path_3017" data-name="Path 3017" d="M784.714,401.761c-1.011,0-2.021,0-3.032,0-.4,0-.6-.16-.6-.462s.246-.51.614-.51q3.032,0,6.063,0c.467,0,.7.315.547.69a.488.488,0,0,1-.53.283Q786.246,401.758,784.714,401.761Z" transform="translate(-84.251 -281.69)" fill="#888" stroke="#707070" stroke-width="0.25"/>
    <path id="Path_3018" data-name="Path 3018" d="M787.03,323.854c-.64,0-1.279,0-1.919,0-.357,0-.552-.176-.553-.477s.191-.483.552-.484q1.919-.008,3.838,0c.375,0,.569.186.563.505s-.177.456-.562.457C788.31,323.856,787.67,323.854,787.03,323.854Z" transform="translate(-87.441 -210.222)" fill="#888" stroke="#707070" stroke-width="0.25"/>
    <path id="Path_3019" data-name="Path 3019" d="M809.122,118.172a1.874,1.874,0,1,1,1.854,1.91A1.876,1.876,0,0,1,809.122,118.172ZM811,119.1a.882.882,0,0,0,.906-.919.905.905,0,1,0-.906.919Z" transform="translate(-109.977 -20.703)" fill="#888" stroke="#707070" stroke-width="0.25"/>
  </g>
</svg>
