<svg xmlns="http://www.w3.org/2000/svg" width="12.96" height="10.015" viewBox="0 0 12.96 10.015">
  <path id="Path_3042" data-name="Path 3042" d="M1.589,7.713H5.124a.589.589,0,0,0,.589-.589V3.589A.589.589,0,0,0,5.124,3H1.589A.589.589,0,0,0,1,3.589V7.124A.589.589,0,0,0,1.589,7.713Zm.589-3.535H4.534V6.535H2.178Zm11.193.589H7.48a.589.589,0,1,0,0,1.178h5.891a.589.589,0,1,0,0-1.178Zm0,5.891H7.48a.589.589,0,1,0,0,1.178h5.891a.589.589,0,0,0,0-1.178ZM2.733,13.015H2.74a.589.589,0,0,0,.412-.17l2.383-2.356a.589.589,0,1,0-.825-.838L2.75,11.588l-.738-.766a.589.589,0,1,0-.847.819l1.151,1.2a.589.589,0,0,0,.416.177Z" transform="translate(-1 -3)" fill="#f26511"/>
</svg>
