<svg xmlns="http://www.w3.org/2000/svg" xmlns:xlink="http://www.w3.org/1999/xlink" width="72.626" height="70.583" viewBox="0 0 72.626 70.583">
  <defs>
    <clipPath id="clip-path">
      <path id="Intersection_1" data-name="Intersection 1" d="M23.424,69.772c-7.554-1.03-21.818-2.416-23.3-12.149A10.493,10.493,0,0,1,0,56.053c-.007-4.4,2.658-8.493,4.665-12.252a16.3,16.3,0,0,0,2.308-7.37,8.294,8.294,0,0,0-.107-1.348C6.173,30.851,2.9,27.616,2.884,23.142q0-.035,0-.069a19.629,19.629,0,0,1,2.164-8.424l.11-.225C8.676,7.244,15.667,2.924,23.28,1.186,36.772-1.895,53.3,1,63.9,10.2a25.3,25.3,0,0,1,2.74,2.776c3.434,4.068,5.99,9.792,5.984,15.309a16.534,16.534,0,0,1-.246,2.856C71.7,35,69.079,37,65.717,38.513c-2.669,1.2-5.379,2.453-5.373,5.789q0,.039,0,.079c.059,3.979,3.744,9.741,3.749,14.835,0,4.767-3.214,8.948-15.642,10.536a101.333,101.333,0,0,1-12.832.831A90.375,90.375,0,0,1,23.424,69.772Z" fill="none"/>
    </clipPath>
  </defs>
  <g id="Group_4930" data-name="Group 4930" transform="translate(0)">
    <g id="Group_4929" data-name="Group 4929" transform="translate(0)" clip-path="url(#clip-path)">
      <path id="Path_3133" data-name="Path 3133" d="M-228.959,11.817v2.412a5.112,5.112,0,0,1-5.113,5.112,5.114,5.114,0,0,1-5.112-5.112V11.817Z" transform="translate(265.272 30.286)" fill="#fff" stroke="#263238" stroke-linecap="round" stroke-linejoin="round" stroke-width="1"/>
      <path id="Path_3134" data-name="Path 3134" d="M-258.276,18.9a14.251,14.251,0,0,1,4.439,1.48,21.264,21.264,0,0,0,4.178,1.828s.174,28.55,1.392,33.946.87,6.18.87,6.18,4,2.089,4.7,8.443-2.872,8.791-3.743,9.226-41.688-.522-43.167-.957-3.574-1.915-2.791-4.265,3.917-4.7,4.962-7.66a36.733,36.733,0,0,1,3.743-6.7c.261-.522.174-11.924.174-11.924l.435-5.832-9.4,4.265s4.265-17.757,4.526-20.368a5.245,5.245,0,0,1,2.437-4.265c.783-.435,12.882-3.134,12.882-3.134s.609-.522,6.18-.7A35.483,35.483,0,0,1-258.276,18.9Z" transform="translate(297.146 26.336)" fill="#fff" stroke="#263238" stroke-linecap="round" stroke-linejoin="round" stroke-width="1"/>
      <path id="Path_3135" data-name="Path 3135" d="M-226.4,33.3s-1.351,7.183-2.845,9.542" transform="translate(259.339 17.459)" fill="#92e3a9" stroke="#263238" stroke-linecap="round" stroke-linejoin="round" stroke-width="1"/>
      <path id="Path_3136" data-name="Path 3136" d="M-221.324,24.327s-6.24,17.9-10.173,24.822-5.155,8.952-5.155,8.952" transform="translate(263.761 22.817)" fill="#f3f3f3" stroke="#263238" stroke-linecap="round" stroke-linejoin="round" stroke-width="1"/>
      <g id="Group_4927" data-name="Group 4927" transform="translate(21.463 15.947)">
        <path id="Path_3137" data-name="Path 3137" d="M-248.494-17.44s-1.5-.866-2.038.574.72,3.421,1.26,4.321a2.372,2.372,0,0,0,1.08,1.08Z" transform="translate(250.664 31.962)" fill="#fff" stroke="#263238" stroke-linecap="round" stroke-linejoin="round" stroke-width="1"/>
        <path id="Path_3138" data-name="Path 3138" d="M-208.028-17.44s1.5-.866,2.038.574-.72,3.421-1.26,4.321a2.372,2.372,0,0,1-1.08,1.08Z" transform="translate(225.388 31.962)" fill="#fff" stroke="#263238" stroke-linecap="round" stroke-linejoin="round" stroke-width="1"/>
        <g id="Group_4926" data-name="Group 4926" transform="translate(1.006)">
          <path id="Path_3139" data-name="Path 3139" d="M-245.7-29.163s.653,6.962.943,7.542,1.668,4.714,4.279,6.019a6.156,6.156,0,0,0,8.558-3.7c1.668-4.424,1.74-11.531,1.74-11.531s-.218-5-2.32-7.034-7.4-2.1-10.588.145S-245.7-29.163-245.7-29.163Z" transform="translate(246.718 44.919)" fill="#fff" stroke="#263238" stroke-linecap="round" stroke-linejoin="round" stroke-width="1"/>
          <path id="Path_3140" data-name="Path 3140" d="M-246.64-37.78s.8-1.305,1.6-2.538,1.813-2.9,1.813-2.9l-.363,3.046s.58.073,1.74-1.16a16.6,16.6,0,0,0,2.1-2.974v2.829l1.523-2.466s.218,1.6.29,2.031a18.487,18.487,0,0,0,.58,1.813l.87-1.451.943.8,1.378-2.538,1.305,3.989.58,1.088.435,1.958s.653-3.336.653-3.626,1.6-3.989.58-7.034-5.584-5.874-8.847-6.164-8.122,2.9-8.485,5.439a25.754,25.754,0,0,0,0,6.744c.218,1.305.87,4.279.87,4.279Z" transform="translate(248.166 53.1)" fill="#263238" stroke="#263238" stroke-linecap="round" stroke-linejoin="round" stroke-width="1"/>
          <path id="Path_3141" data-name="Path 3141" d="M-230.252-20.268l-.146.061s-.29,2.538-.8,5.657a49.962,49.962,0,0,1-1.015,4.931s-2.248-.725-3.554-1.305a7.8,7.8,0,0,0-4.641.073c-1.378.362-2.683.87-2.683.87-1.668-1.45-2.466-8.992-2.466-8.992l-.186.055c0,.716.041,1.178.041,1.178s.653,6.962.943,7.542,1.668,4.714,4.279,6.019a6.156,6.156,0,0,0,8.558-3.7c1.668-4.424,1.74-11.531,1.74-11.531S-230.195-19.742-230.252-20.268Z" transform="translate(246.718 33.497)" fill="#263238" stroke="#263238" stroke-linecap="round" stroke-linejoin="round" stroke-width="1"/>
          <path id="Path_3142" data-name="Path 3142" d="M-227.119-12.2s-.29,5.584-.508,5.947-1.6-.653-1.813-1.813" transform="translate(236.985 28.678)" fill="#fff" stroke="#263238" stroke-linecap="round" stroke-linejoin="round" stroke-width="1"/>
          <path id="Path_3143" data-name="Path 3143" d="M-237.359-9.677a3.038,3.038,0,0,0,2.9.218" transform="translate(241.713 27.173)" fill="none" stroke="#263238" stroke-linecap="round" stroke-linejoin="round" stroke-width="1"/>
          <path id="Path_3144" data-name="Path 3144" d="M-220.621-9.317s1.668,1.233,2.974.218" transform="translate(231.72 26.958)" fill="none" stroke="#263238" stroke-linecap="round" stroke-linejoin="round" stroke-width="1"/>
          <path id="Path_3145" data-name="Path 3145" d="M-238.979-13.684a21.323,21.323,0,0,1,4.134-.073" transform="translate(242.681 29.657)" fill="none" stroke="#263238" stroke-linecap="round" stroke-linejoin="round" stroke-width="1"/>
          <path id="Path_3146" data-name="Path 3146" d="M-220.981-13.426a7.759,7.759,0,0,1,3.7.29" transform="translate(231.934 29.471)" fill="none" stroke="#263238" stroke-linecap="round" stroke-linejoin="round" stroke-width="1"/>
          <line id="Line_12" data-name="Line 12" x2="1.668" y2="0.145" transform="translate(7.98 25.038)" fill="none" stroke="#fff" stroke-linecap="round" stroke-linejoin="round" stroke-width="1"/>
        </g>
      </g>
      <path id="Path_3147" data-name="Path 3147" d="M-192.979,26.072s6.006,1.218,6.876,2.524,4.962,8.443,6.006,10.184,2.089,2.959,1.915,4.178-5.31,3.134-7.486,3.134-7.311-4.874-7.747-5.831a40.368,40.368,0,0,1-.87-5.919" transform="translate(238.463 21.775)" fill="#fff" stroke="#263238" stroke-width="1"/>
      <g id="Group_4928" data-name="Group 4928" transform="translate(20.696 57.494)">
        <path id="Path_3148" data-name="Path 3148" d="M-242.758,51.313s-4.771-1.066-5.73-1.231-1.7-.062-1.909.71a8.627,8.627,0,0,1-.519,1.409,8.244,8.244,0,0,1-1.322,2.055,1.413,1.413,0,0,0,.328,2.051c.349.16,1.209.681,1.209.681s-1.573.99-1.524,1.667.458.844,1.034.6,1.5-.326,1.883-.468,3.015-.773,3.015-.773,1.413-.641,1.935-.951,1.633-.984,1.633-.984,3.279.172,3.461.191,2.308.677,2.308.677l.456-4.775s-2.315-.617-3.161-.709S-242.758,51.313-242.758,51.313Z" transform="translate(252.567 -50.015)" fill="#fff" stroke="#263238" stroke-linecap="round" stroke-linejoin="round" stroke-width="1"/>
        <path id="Path_3149" data-name="Path 3149" d="M-249.9,57.512s-.023.624.4.849a3.223,3.223,0,0,0,1.855.649c.727-.1,1.75-.035,1.8-.477s-.2-.648-.6-.691a1.293,1.293,0,0,0-.634.066l-.685-.7a1.552,1.552,0,0,0,.678-.061l.191-.113" transform="translate(250.974 -54.205)" fill="none" stroke="#263238" stroke-linecap="round" stroke-linejoin="round" stroke-width="1"/>
        <path id="Path_3150" data-name="Path 3150" d="M-251.793,60.542s-.228.617.6.84,3.192.7,3.664.889,1.112.479,1.357.281.475-.665.238-.959a2.68,2.68,0,0,0-1.112-.479" transform="translate(252.122 -56.3)" fill="none" stroke="#263238" stroke-linecap="round" stroke-linejoin="round" stroke-width="1"/>
        <path id="Path_3151" data-name="Path 3151" d="M-250.937,64.53a23.534,23.534,0,0,1,2.126,1.094c.33.26,1.511.925,1.845.737a.722.722,0,0,0,.16-1.057A10.5,10.5,0,0,0-248.5,64l-.335-.216" transform="translate(251.594 -58.237)" fill="none" stroke="#263238" stroke-linecap="round" stroke-linejoin="round" stroke-width="1"/>
        <path id="Path_3152" data-name="Path 3152" d="M-238.625,58.777a5.922,5.922,0,0,0,2.285,1.635A2.1,2.1,0,0,0-234.326,60" transform="translate(244.243 -55.247)" fill="none" stroke="#263238" stroke-linecap="round" stroke-linejoin="round" stroke-width="1"/>
        <path id="Path_3153" data-name="Path 3153" d="M-225.379,53.407l-.526,5.27,1.6.128.567-5.315Z" transform="translate(236.648 -52.04)" fill="#263238" stroke="#263238" stroke-linecap="round" stroke-linejoin="round" stroke-width="1"/>
        <path id="Path_3154" data-name="Path 3154" d="M-226.6,52.638s.092-.438,1.04-.514a2.129,2.129,0,0,1,1.855.648Z" transform="translate(237.063 -51.269)" fill="#fff" stroke="#263238" stroke-linecap="round" stroke-linejoin="round" stroke-width="1"/>
      </g>
      <path id="Path_3155" data-name="Path 3155" d="M-218.818,52.427l-.958,8.791s7.747,1.828,13.317,3.221a15.775,15.775,0,0,0,10.358-.7,5.4,5.4,0,0,0,2.7-5.049c-.174-2.524-2.263-3.83-2.785-4.265s-4.352-.7-9.052-.7A128.817,128.817,0,0,1-218.818,52.427Z" transform="translate(253.684 6.039)" fill="#fff" stroke="#263238" stroke-width="1"/>
    </g>
  </g>
</svg>
