<svg id="Group_5643" data-name="Group 5643" xmlns="http://www.w3.org/2000/svg" width="20.394" height="29" viewBox="0 0 20.394 29">
  <path id="Path_3501" data-name="Path 3501" d="M1019.07,687.809a1.639,1.639,0,0,0-.22-.1,2.515,2.515,0,0,1-1.872-2.439q-.009-6.867,0-13.733a2.53,2.53,0,0,1,2.544-2.531q2-.016,3.992,0c.209,0,.267-.044.262-.259-.016-.7,0-1.4-.009-2.1,0-.159.04-.2.2-.2q3.2.008,6.4,0c.158,0,.206.039.2.2-.009.708,0,1.416-.008,2.124,0,.183.044.234.231.232,1.312-.009,2.624-.007,3.936,0a2.543,2.543,0,0,1,2.634,2.616q.006,6.8,0,13.592a2.542,2.542,0,0,1-1.9,2.51l-.309.087Zm8.1-15.406q-2.93,0-5.859,0a.851.851,0,0,0-.869,1.2,28.36,28.36,0,0,1,1.63,9.845.861.861,0,0,0,.957.964h8.265a.871.871,0,0,0,.973-.978,31.46,31.46,0,0,1,1.608-9.775.864.864,0,0,0-.9-1.254Z" transform="translate(-1016.972 -658.809)" fill="#fff"/>
  <path id="Path_3502" data-name="Path 3502" d="M1068.762,571.2h-5.775a.874.874,0,0,1-.992-.987q0-2,0-3.991a.868.868,0,0,1,.981-.969h11.635a.869.869,0,0,1,.978.972q0,2.01,0,4.02a.865.865,0,0,1-.967.955Z" transform="translate(-1058.594 -565.249)" fill="#fff"/>
  <path id="Path_3503" data-name="Path 3503" d="M1089.155,767.683h.284q4.474,0,8.948-.005c.245,0,.295.034.221.284a32.567,32.567,0,0,0-1.288,8.075c-.007.208-.056.261-.267.26-2.1-.009-4.21-.006-6.315,0-.133,0-.24.024-.244-.189a29.812,29.812,0,0,0-1.326-8.32A.688.688,0,0,1,1089.155,767.683Z" transform="translate(-1083.704 -752.39)" fill="#fff"/>
</svg>
