<svg xmlns="http://www.w3.org/2000/svg" width="10.001" height="10" viewBox="0 0 10.001 10">
  <g id="Group_2806" data-name="Group 2806" transform="translate(789.785 -585)">
    <path id="Path_2020" data-name="Path 2020" d="M-779.783,587.559v5.762c-.007.01-.017.018-.019.029a1.93,1.93,0,0,1-1.953,1.65h-6.054a2.587,2.587,0,0,1-.292-.018,1.924,1.924,0,0,1-1.682-1.882q0-2.714,0-5.429a1.97,1.97,0,0,1,.088-.554,1.932,1.932,0,0,1,1.919-1.352c.094,0,.222.032.272-.015s.019-.176.02-.27a.415.415,0,0,1,.314-.48h.156a.429.429,0,0,1,.313.491c0,.058.005.118,0,.176-.01.082.019.1.1.1,1.152,0,2.3,0,3.457,0,.09,0,.208.025.26-.021s.019-.165.013-.252a.431.431,0,0,1,.314-.491h.156a.413.413,0,0,1,.313.478v.156c0,.131,0,.133.134.13a2.194,2.194,0,0,1,1.034.176,1.9,1.9,0,0,1,1.119,1.518Zm-5,1.3q-2.065,0-4.13,0c-.077,0-.1.02-.1.1q0,2.051,0,4.1a1.122,1.122,0,0,0,.03.26,1.148,1.148,0,0,0,1.171.905q3.017,0,6.034,0a1.276,1.276,0,0,0,.29-.03,1.146,1.146,0,0,0,.912-1.154q0-2.036,0-4.072c0-.085-.019-.107-.105-.106Q-782.723,588.859-784.779,588.857Zm-.006-.787h2.92c.407,0,.814,0,1.221,0,.061,0,.086-.011.082-.078-.006-.1,0-.2,0-.3a1.161,1.161,0,0,0-.767-1.071,2.1,2.1,0,0,0-.675-.066c-.063,0-.083.014-.082.08,0,.224,0,.449,0,.674a.39.39,0,0,1-.392.4.393.393,0,0,1-.389-.4c0-.225,0-.449,0-.674,0-.059-.012-.076-.074-.076q-1.841,0-3.681,0c-.07,0-.077.027-.076.084,0,.221,0,.443,0,.664a.393.393,0,0,1-.387.4.391.391,0,0,1-.394-.406c0-.225,0-.449,0-.674,0-.053-.011-.075-.069-.072-.123.005-.248,0-.371.005a1.122,1.122,0,0,0-.961.632,1.59,1.59,0,0,0-.125.78c0,.08.017.1.1.1Q-786.845,588.067-784.785,588.07Z" fill="#f26511"/>
    <path id="Path_2021" data-name="Path 2021" d="M-406.4,679.388a.054.054,0,0,1,.023,0v.134Z" transform="translate(-373.404 -91.939)" fill="#f26511"/>
    <path id="Path_2022" data-name="Path 2022" d="M-715.112,778.043c-.174,0-.348,0-.522,0a.538.538,0,0,1-.536-.535.537.537,0,0,1,.535-.536q.535,0,1.07,0a.539.539,0,0,1,.531.541.54.54,0,0,1-.529.53C-714.746,778.045-714.929,778.043-715.112,778.043Z" transform="translate(-71.829 -187.128)" fill="#f26511"/>
    <path id="Path_2023" data-name="Path 2023" d="M-626.622,776.986c.178,0,.357,0,.535,0a.54.54,0,0,1,.532.539.539.539,0,0,1-.528.531q-.542,0-1.084,0a.535.535,0,0,1-.524-.533.534.534,0,0,1,.532-.538C-626.978,776.985-626.8,776.986-626.622,776.986Z" transform="translate(-158.164 -187.144)" fill="#f26511"/>
    <path id="Path_2024" data-name="Path 2024" d="M-538.044,778.029c-.178,0-.357,0-.535,0a.54.54,0,0,1-.523-.535.538.538,0,0,1,.523-.535c.366,0,.732,0,1.1,0a.535.535,0,0,1,.516.528.538.538,0,0,1-.515.542C-537.669,778.033-537.856,778.029-538.044,778.029Z" transform="translate(-244.602 -187.115)" fill="#f26511"/>
    <path id="Path_2025" data-name="Path 2025" d="M-626.619,865.456c.183,0,.366,0,.549,0a.537.537,0,0,1,.517.527.541.541,0,0,1-.517.543c-.366.005-.731,0-1.1,0a.536.536,0,0,1-.522-.536.532.532,0,0,1,.521-.534C-626.985,865.453-626.8,865.456-626.619,865.456Z" transform="translate(-158.164 -273.382)" fill="#f26511"/>
    <path id="Path_2026" data-name="Path 2026" d="M-715.1,865.456c.183,0,.366,0,.549,0a.537.537,0,0,1,.516.528.541.541,0,0,1-.517.542c-.366.005-.732,0-1.1,0a.538.538,0,0,1-.522-.537.533.533,0,0,1,.523-.533C-715.464,865.453-715.281,865.456-715.1,865.456Z" transform="translate(-71.829 -273.382)" fill="#f26511"/>
    <path id="Path_2027" data-name="Path 2027" d="M-538.028,865.456c.178,0,.357,0,.535,0a.534.534,0,0,1,.527.53.539.539,0,0,1-.531.541q-.535.005-1.07,0a.542.542,0,0,1-.534-.539.537.537,0,0,1,.525-.532C-538.394,865.452-538.211,865.456-538.028,865.456Z" transform="translate(-244.602 -273.381)" fill="#f26511"/>
  </g>
</svg>
