<svg id="Group_2816" data-name="Group 2816" xmlns="http://www.w3.org/2000/svg" width="11.091" height="11.092" viewBox="0 0 11.091 11.092">
  <path id="Path_2898" data-name="Path 2898" d="M682.073,328.007c.021-.118.045-.235.062-.353a5.546,5.546,0,1,1,10.9,2.04.354.354,0,1,1-.7-.137,5.237,5.237,0,0,0,.129-1.157,4.848,4.848,0,1,0-6,4.795,4.753,4.753,0,0,0,3.4-.411.349.349,0,1,1,.319.617,5.613,5.613,0,0,1-1.957.6c-.065.008-.13.019-.2.028h-.866a.237.237,0,0,0-.054-.022c-.175-.025-.351-.038-.524-.073a5.5,5.5,0,0,1-3.248-1.926,5.423,5.423,0,0,1-1.2-2.683c-.02-.129-.042-.257-.064-.386v-.931Z" transform="translate(-682.073 -322.935)" fill="#f26511"/>
  <path id="Path_2900" data-name="Path 2900" d="M761.361,489.376h0Z" transform="translate(-756.077 -478.284)" fill="#f26511"/>
  <path id="Path_2901" data-name="Path 2901" d="M682.073,401.64v0Z" transform="translate(-682.073 -396.395)" fill="#f26511"/>
  <path id="Path_2902" data-name="Path 2902" d="M682.073,410.088v0Z" transform="translate(-682.073 -404.28)" fill="#f26511"/>
  <path id="Path_2903" data-name="Path 2903" d="M736.754,356.247c0,.563,0,1.125,0,1.688a.391.391,0,0,1-.187.353q-1,.667-2,1.334a.378.378,0,0,1-.547-.1.355.355,0,0,1,.143-.476q.615-.411,1.231-.819c.195-.13.388-.261.585-.387a.161.161,0,0,0,.084-.155q0-1.585,0-3.17a.338.338,0,0,1,.237-.336.324.324,0,0,1,.382.121.456.456,0,0,1,.07.23C736.757,355.1,736.754,355.673,736.754,356.247Z" transform="translate(-730.518 -352.076)" fill="#f26511"/>
</svg>
