<svg id="Group_5644" data-name="Group 5644" xmlns="http://www.w3.org/2000/svg" width="32.18" height="27.995" viewBox="0 0 32.18 27.995">
  <path id="Path_3504" data-name="Path 3504" d="M1446.182,585.015V584.7a1.243,1.243,0,0,1,.674-.611c1.113-.5,2.231-1,3.328-1.536a22.579,22.579,0,0,1,5.64-2.036c.205-.04.409-.085.614-.13.721-.159.995.007,1.188.721a4.822,4.822,0,0,0,6.818,3.028,4.743,4.743,0,0,0,2.492-3.073c.181-.65.471-.828,1.133-.689.072.015.143.03.214.05a32.375,32.375,0,0,1,3.641,1.034c1.99.811,3.917,1.777,5.869,2.681a.773.773,0,0,1,.419,1.22q-1.251,2.475-2.505,4.948a.78.78,0,0,1-1.1.474c-.811-.24-1.621-.484-2.432-.726-.357-.106-.357-.106-.357.278q0,8.5,0,17.006c0,.719-.265.985-.98.985H1453.7c-.7,0-.969-.271-.97-.964q0-1.666,0-3.332V590.324c0-.373,0-.373-.366-.265-.841.249-1.681.5-2.524.745a.712.712,0,0,1-.942-.4Q1447.535,587.715,1446.182,585.015Z" transform="translate(-1446.182 -580.332)" fill="#fff"/>
  <path id="Path_3505" data-name="Path 3505" d="M1542.271,584.077a13.224,13.224,0,0,0,6.008.006,3.114,3.114,0,0,1-2.94,2.167A3.157,3.157,0,0,1,1542.271,584.077Z" transform="translate(-1529.187 -583.567)" fill="#fff"/>
</svg>
